<svg width="20" height="14" viewBox="0 0 20 14" fill="none" xmlns="http://www.w3.org/2000/svg">
<path d="M0.272366 6.34241L6.22404 0.390738C6.58716 0.0276113 7.17608 0.0276113 7.53921 0.390738C7.90241 0.753939 7.90241 1.34271 7.53921 1.70591L3.17507 6.07005H19.0701C19.5836 6.07005 20 6.48644 20 7C20 7.51348 19.5836 7.92994 19.0701 7.92994H3.17507L7.53906 12.2941C7.90226 12.6573 7.90226 13.2461 7.53906 13.6093C7.35753 13.7907 7.11947 13.8816 6.88147 13.8816C6.64348 13.8816 6.40549 13.7907 6.22389 13.6093L0.272366 7.65758C-0.0908356 7.29438 -0.0908356 6.70561 0.272366 6.34241Z" fill="white"/>
</svg>
