<svg width="20" height="14" viewBox="0 0 20 14" fill="none" xmlns="http://www.w3.org/2000/svg">
<path d="M19.7276 6.34241L13.776 0.390738C13.4128 0.0276113 12.8239 0.0276113 12.4608 0.390738C12.0976 0.753939 12.0976 1.34271 12.4608 1.70591L16.8249 6.07005H0.929949C0.416394 6.07005 0 6.48644 0 7C0 7.51348 0.416394 7.92994 0.929949 7.92994H16.8249L12.4609 12.2941C12.0977 12.6573 12.0977 13.2461 12.4609 13.6093C12.6425 13.7907 12.8805 13.8816 13.1185 13.8816C13.3565 13.8816 13.5945 13.7907 13.7761 13.6093L19.7276 7.65758C20.0908 7.29438 20.0908 6.70561 19.7276 6.34241Z" fill="white"/>
</svg>
