<svg width="91" height="59" viewBox="0 0 91 59" fill="none" xmlns="http://www.w3.org/2000/svg">
<path d="M90.0527 6.74428C90.0527 3.01958 87.0333 0 83.3084 0H6.74428C3.0194 0 0 3.0194 0 6.74428V29.5H90.0527V6.74428Z" fill="#FF4B55"/>
<path d="M6.74428 59H83.3084C87.0331 59 90.0527 55.9806 90.0527 52.2557V29.5H0V52.2557C0 55.9806 3.0194 59 6.74428 59Z" fill="#464655"/>
<path d="M41.4919 16.5361L42.5535 19.7191L45.9087 19.7451C46.1687 19.747 46.2765 20.0789 46.0674 20.2332L43.3682 22.2263L44.3803 25.4253C44.4587 25.6731 44.1764 25.878 43.965 25.7271L41.2353 23.776L38.5056 25.7271C38.294 25.8784 38.0119 25.6731 38.0903 25.4253L39.1023 22.2263L36.4032 20.2332C36.1943 20.0788 36.3019 19.747 36.5619 19.7451L39.917 19.7191L40.9787 16.5361C41.0608 16.2893 41.4096 16.2893 41.4919 16.5361Z" fill="#FFE15A"/>
<path d="M55.8409 43.5609C55.8409 43.5609 36.6333 29.0707 36.0662 28.5946C35.1898 27.8585 34.5135 26.5568 34.4811 24.9717C34.4811 24.9717 32.4097 27.0936 32.8153 29.29C33.2844 31.8291 34.74 32.7349 36.6162 33.9639C37.9346 34.8277 48.4157 41.4381 54.5344 45.2942L55.8409 43.5609Z" fill="#FFE15A"/>
<path d="M61.588 47.8081C61.3378 47.6294 59.326 46.1425 56.5349 44.0746L55.522 45.9165C57.5712 47.2077 58.9357 48.067 58.9357 48.067C58.9357 48.067 59.1297 50.5901 61.1677 50.1697C61.9022 50.0178 62.4935 48.455 61.588 47.8081Z" fill="#FFE15A"/>
<path d="M45.0023 41.1177C43.5502 41.6286 41.9952 41.9209 40.3684 41.9209C36.2454 41.9209 32.5513 40.1248 29.9936 37.2846L27.7197 39.331C28.4818 40.1774 29.2956 40.975 30.2129 41.6557L29.7602 42.44L33.1217 44.3807L33.5666 43.6098C35.0852 44.2702 36.7178 44.7147 38.4277 44.9083V45.8025H42.3093V44.9083C44.0193 44.7147 45.6518 44.2702 47.1704 43.6098L47.6154 44.3807L48.9512 43.6094C47.6469 42.7868 46.3103 41.9436 45.0023 41.1177Z" fill="#FFE15A"/>
<path d="M57.3297 26.0066C57.136 24.2966 56.6916 22.6641 56.0311 21.1457L56.802 20.7007L54.8613 17.339L54.0771 17.7917C53.0731 16.439 51.8769 15.2428 50.524 14.2389L50.9767 13.4546L47.6152 11.5139L47.1703 12.2848C45.9104 11.7369 44.5693 11.3479 43.1736 11.1171L42.6636 14.1782C49.2867 15.2752 54.3423 21.0134 54.3423 27.9475C54.3423 31.6811 52.8689 35.0646 50.483 37.5713C51.3083 38.1945 52.1276 38.8129 52.9371 39.4243C53.3294 38.9948 53.7293 38.5718 54.0772 38.1032L54.8615 38.5559L56.8022 35.1944L56.0313 34.7494C56.6917 33.2309 57.1362 31.5983 57.3299 29.8885H58.2239V26.0069H57.3297V26.0066Z" fill="#FFE15A"/>
</svg>
