<svg width="88" height="59" viewBox="0 0 88 59" fill="none" xmlns="http://www.w3.org/2000/svg">
<path d="M87.0952 50.8524C87.0952 55.6286 83.3024 59 78.6667 59H8.42857C3.79286 59 0 55.6286 0 50.8524V8.14762C0 3.37143 3.79286 0 8.42857 0H78.6667C83.3024 0 87.0952 3.37143 87.0952 8.14762V50.8524Z" fill="#359846"/>
<path d="M8.42871 0H78.6668C83.3025 0 87.0954 3.37143 87.0954 8.14762V50.8524C87.0954 55.6286 83.443 59 78.8073 59" fill="#1E7C2B"/>
<path d="M87.0952 50.7119C87.0952 55.9095 83.3024 59 78.6667 59H8.42857C3.79286 59 0 55.3476 0 50.5714" fill="#107517"/>
<path d="M8.42871 0H78.6668C83.3025 0 87.0954 3.37143 87.0954 8.14762V23.881" fill="#107517"/>
<path d="M43.5477 47.6214C53.5559 47.6214 61.6691 39.5082 61.6691 29.5C61.6691 19.4918 53.5559 11.3786 43.5477 11.3786C33.5395 11.3786 25.4263 19.4918 25.4263 29.5C25.4263 39.5082 33.5395 47.6214 43.5477 47.6214Z" fill="#EC1C24"/>
<path d="M29.6406 17.8405C35.8216 9.97381 47.2001 9.41191 55.0668 15.4524C62.0906 20.931 64.7597 33.1524 57.4549 41.1595" fill="#CE0909"/>
</svg>
