<svg width="52" height="52" viewBox="0 0 52 52" fill="none" xmlns="http://www.w3.org/2000/svg">
<path d="M29.1216 0C16.5068 0 6.24316 10.2637 6.24316 22.8785C6.24316 35.4932 16.5068 45.7569 29.1216 45.7569C41.7364 45.7569 52.0001 35.4932 52.0001 22.8785C52.0001 10.2637 41.7364 0 29.1216 0ZM29.1216 38.7174C20.3873 38.7174 13.2827 31.6123 13.2827 22.8785C13.2827 14.1446 20.3873 7.03953 29.1216 7.03953C37.8555 7.03953 44.9606 14.1446 44.9606 22.8785C44.9606 31.6123 37.8555 38.7174 29.1216 38.7174Z" fill="#A0A0A0"/>
<path d="M29.1209 10.5593C22.3289 10.5593 16.8018 16.0865 16.8018 22.8785C16.8018 29.6705 22.3289 35.1977 29.1209 35.1977C35.913 35.1977 41.4401 29.6705 41.4401 22.8785C41.4401 16.0865 35.913 10.5593 29.1209 10.5593ZM27.361 30.6467L20.8371 24.1228L23.3257 21.6342L27.361 25.6696L34.9162 18.1144L37.4048 20.603L27.361 30.6467Z" fill="#A0A0A0"/>
<path d="M14.5778 44.888C11.6171 42.9247 9.07536 40.3829 7.11198 37.4222L0 44.5342L7.46579 52L14.5778 44.888Z" fill="#A0A0A0"/>
</svg>
