<svg width="64" height="38" viewBox="0 0 64 38" fill="none" xmlns="http://www.w3.org/2000/svg">
<path d="M47.6444 0.263794H40.6344L39.5557 10.5875H46.5657L47.6444 0.263794Z" fill="#A0A0A0"/>
<path d="M59.3325 0.125H51.4288L50.12 12.6562C50.02 13.6112 49.215 14.3375 48.255 14.3375H37.475C36.359 14.3375 35.494 13.3664 35.6113 12.2675L36.88 0.125H28.3675C25.9963 0.125 24.0025 1.9025 23.7313 4.26L20.455 32.6712C20.1365 35.433 22.2958 37.875 25.0913 37.875H56.0575C58.4288 37.875 60.4213 36.0987 60.6938 33.7412L63.9688 5.33C64.2884 2.55825 62.1199 0.125 59.3325 0.125Z" fill="#A0A0A0"/>
<path d="M14.9979 25.1388H1.875C0.8395 25.1388 0 25.9783 0 27.0138C0 28.0493 0.8395 28.8888 1.875 28.8888H14.9979C16.0334 28.8888 16.8729 28.0493 16.8729 27.0138C16.8729 25.9783 16.0335 25.1388 14.9979 25.1388Z" fill="#A0A0A0"/>
<path d="M14.9985 17.1388H3.99805C2.96255 17.1388 2.12305 17.9783 2.12305 19.0138C2.12305 20.0493 2.96255 20.8888 3.99805 20.8888H14.9985C16.034 20.8888 16.8735 20.0493 16.8735 19.0138C16.8735 17.9783 16.0342 17.1388 14.9985 17.1388Z" fill="#A0A0A0"/>
<path d="M14.9974 9.13879H5.99707C4.96157 9.13879 4.12207 9.97829 4.12207 11.0138C4.12207 12.0493 4.96157 12.8888 5.99707 12.8888H14.9974C16.0329 12.8888 16.8724 12.0493 16.8724 11.0138C16.8724 9.97829 16.0331 9.13879 14.9974 9.13879Z" fill="#A0A0A0"/>
</svg>
