<svg width="50" height="48" viewBox="0 0 50 48" fill="none" xmlns="http://www.w3.org/2000/svg">
<g filter="url(#filter0_d)">
<ellipse cx="24.951" cy="24" rx="20.9422" ry="20" fill="white"/>
<path d="M45.3932 24C45.3932 34.7481 36.2628 43.5 24.951 43.5C13.6391 43.5 4.50879 34.7481 4.50879 24C4.50879 13.2519 13.6391 4.5 24.951 4.5C36.2628 4.5 45.3932 13.2519 45.3932 24Z" stroke="#F0F0F0"/>
</g>
<g clip-path="url(#clip0)">
<path d="M29.0733 33C28.4649 33 27.8616 32.8973 27.2717 32.6926C24.673 31.791 22.2607 30.3226 20.2958 28.4461C18.3308 26.5696 16.7932 24.2658 15.8492 21.784C15.5458 20.9864 15.4563 20.163 15.5832 19.3368C15.7021 18.5628 16.016 17.8114 16.4911 17.1639C16.9683 16.5135 17.6044 15.9725 18.3308 15.5995C19.1054 15.2017 19.9508 15 20.8437 15C21.1214 15 21.3614 15.1853 21.4196 15.4446L22.344 19.5647C22.3859 19.7513 22.3259 19.9454 22.1846 20.0803L20.605 21.5889C22.0951 24.4184 24.5132 26.7276 27.4759 28.1507L29.0556 26.6421C29.1968 26.5073 29.4001 26.45 29.5955 26.4899L33.9097 27.3728C34.1812 27.4283 34.3752 27.6576 34.3752 27.9228C34.3752 28.7755 34.164 29.5829 33.7474 30.3226C33.3568 31.0163 32.7904 31.6239 32.1094 32.0796C31.4313 32.5333 30.6446 32.8331 29.8341 32.9466C29.5802 32.9822 29.3262 33 29.0733 33ZM20.3731 16.1496C19.1953 16.2737 18.15 16.8633 17.4558 17.8095C16.6752 18.8734 16.4931 20.1821 16.9564 21.3999C18.7713 26.1713 22.6777 29.902 27.6739 31.6353C28.9491 32.0776 30.3194 31.9038 31.4335 31.1583C32.4242 30.4954 33.0416 29.497 33.1716 28.3723L29.662 27.654L28.0123 29.2295C27.8367 29.3972 27.57 29.4417 27.3454 29.3409C23.8413 27.7688 21.005 25.06 19.3588 21.7137C19.2533 21.4991 19.2999 21.2444 19.4754 21.0768L21.1251 19.5013L20.3731 16.1496Z" fill="#4978B0"/>
<path d="M33.7859 24.5621C33.4606 24.5621 33.1969 24.3103 33.1969 23.9996C33.1969 19.6575 29.4979 16.125 24.9513 16.125C24.626 16.125 24.3623 15.8731 24.3623 15.5625C24.3623 15.2518 24.626 15 24.9513 15C27.4684 15 29.8349 15.9361 31.6148 17.6359C33.3947 19.3357 34.3749 21.5957 34.3749 23.9996C34.3749 24.3103 34.1112 24.5621 33.7859 24.5621Z" fill="#4978B0"/>
<path d="M31.43 24.5622C31.1047 24.5622 30.841 24.3103 30.841 23.9997C30.841 20.8982 28.1989 18.3749 24.9513 18.3749C24.626 18.3749 24.3623 18.1231 24.3623 17.8124C24.3623 17.5018 24.626 17.25 24.9513 17.25C28.8484 17.25 32.019 20.2779 32.019 23.9997C32.019 24.3103 31.7553 24.5622 31.43 24.5622Z" fill="#4978B0"/>
<path d="M29.0741 24.5622C28.7488 24.5622 28.4851 24.3104 28.4851 23.9997C28.4851 22.1388 26.8999 20.6249 24.9513 20.6249C24.626 20.6249 24.3623 20.373 24.3623 20.0624C24.3623 19.7518 24.626 19.4999 24.9513 19.4999C27.5494 19.4999 29.6631 21.5185 29.6631 23.9997C29.6631 24.3104 29.3994 24.5622 29.0741 24.5622Z" fill="#4978B0"/>
</g>
<defs>
<filter id="filter0_d" x="0.00878906" y="0" width="49.8844" height="48" filterUnits="userSpaceOnUse" color-interpolation-filters="sRGB">
<feFlood flood-opacity="0" result="BackgroundImageFix"/>
<feColorMatrix in="SourceAlpha" type="matrix" values="0 0 0 0 0 0 0 0 0 0 0 0 0 0 0 0 0 0 127 0"/>
<feOffset/>
<feGaussianBlur stdDeviation="2"/>
<feColorMatrix type="matrix" values="0 0 0 0 0.766667 0 0 0 0 0.766667 0 0 0 0 0.766667 0 0 0 0.25 0"/>
<feBlend mode="normal" in2="BackgroundImageFix" result="effect1_dropShadow"/>
<feBlend mode="normal" in="SourceGraphic" in2="effect1_dropShadow" result="shape"/>
</filter>
<clipPath id="clip0">
<rect width="18.848" height="18" fill="white" transform="translate(15.5269 15)"/>
</clipPath>
</defs>
</svg>
