<svg width="28" height="30" viewBox="0 0 28 30" fill="none" xmlns="http://www.w3.org/2000/svg">
<path d="M0.000101726 26.379C0.000101726 27.3394 0.382408 28.2601 1.06307 28.9392C1.74377 29.6182 2.66678 29.9996 3.62965 29.9996H24.3704C25.3332 29.9996 26.2563 29.6182 26.937 28.9392C27.6177 28.2602 28 27.3395 28 26.379V20.6895H24.8891V26.379C24.8891 26.5161 24.8345 26.6477 24.7372 26.7448C24.6399 26.8419 24.5078 26.8963 24.3704 26.8963H3.6296C3.34314 26.8963 3.11093 26.6647 3.11093 26.3789V20.6895H0L0.000101726 26.379Z" fill="#9DC9FF"/>
<path d="M12.8652 0V16.428L8.19871 11.773L6 13.9659L13.3217 21.2692C13.6132 21.56 14.0085 21.7231 14.4209 21.7231C14.8332 21.7231 15.2285 21.56 15.52 21.2692L22.8417 13.9659L20.643 11.7726L15.9765 16.4276V0.000554589L12.8652 0Z" fill="#9DC9FF"/>
</svg>
