<svg width="82" height="82" viewBox="0 0 82 82" fill="none" xmlns="http://www.w3.org/2000/svg">
<path d="M75.7909 22.4537C74.9948 22.839 74.6616 23.7967 75.0468 24.5929C77.5351 29.735 78.7969 35.255 78.7969 41.0001C78.7969 61.8414 61.8413 78.797 41 78.797C32.8306 78.797 24.8341 76.1128 18.3151 71.212C19.1665 69.4261 18.8549 67.2198 17.3781 65.7431C15.5047 63.8699 12.4566 63.8699 10.5831 65.7431C8.70976 67.6165 8.70976 70.6646 10.5831 72.5381C12.0324 73.9873 14.2158 74.335 16.0211 73.4904C23.1592 78.9848 31.9822 82.0001 41 82.0001C63.6075 82.0001 82 63.6076 82 41.0001C82 34.7678 80.6307 28.7782 77.9301 23.1978C77.5449 22.4016 76.5873 22.0685 75.7909 22.4537Z" fill="#9DC9FF"/>
<path d="M5.80566 58.7719C6.61029 58.4045 6.96455 57.4543 6.597 56.6498C4.34488 51.7197 3.20312 46.4543 3.20312 41C3.20312 20.1587 20.1587 3.20312 41 3.20312C49.0411 3.20312 56.6495 5.67386 63.1132 10.3642C61.9897 12.2127 62.2249 14.661 63.821 16.2571C65.6945 18.1305 68.7424 18.1305 70.6159 16.2571C72.4893 14.3838 72.4893 11.3357 70.6159 9.46219C69.2903 8.13658 67.3768 7.75044 65.7071 8.30074C58.5954 2.91276 49.9792 0 41 0C18.3925 0 0 18.3925 0 41C0 46.9168 1.23929 52.6299 3.68343 57.9806C4.04907 58.7812 4.99719 59.1412 5.80566 58.7719Z" fill="#9DC9FF"/>
<path d="M41 10.5703C25.3358 10.5703 10.5703 23.0122 10.5703 41C10.5703 57.6612 24.1034 71.4297 41 71.4297C57.8933 71.4297 71.4297 57.6695 71.4297 41C71.4297 24.3388 57.8966 10.5703 41 10.5703ZM32.4278 15.1572C29.1182 19.0914 27.1153 24.7065 26.0787 29.7891H16.1899C19.3078 22.9166 25.1999 17.561 32.4278 15.1572ZM13.7734 41C13.7734 38.2142 14.1948 35.5251 14.9759 32.9922L25.53 32.9906C25.1703 35.5685 24.9844 38.2581 24.9844 41C24.9844 43.7419 25.1703 46.4299 25.53 49.0078H14.9759C14.1948 46.4749 13.7734 43.7858 13.7734 41ZM16.19 52.2109H26.0789C27.1151 57.2924 29.1178 62.9081 32.428 66.8428C25.1999 64.439 19.3078 59.0834 16.19 52.2109ZM39.3984 68.0041C34.9909 66.7754 31.2028 60.5652 29.3679 52.2109H39.3984V68.0041ZM39.3984 49.0078H28.777C28.3946 46.4644 28.1875 43.7726 28.1875 41C28.1875 38.2274 28.3947 35.5356 28.777 32.9922H39.3984V49.0078ZM39.3984 29.7891H29.3679C31.2028 21.4347 34.9909 15.2246 39.3984 13.9959V29.7891ZM42.6016 13.9959C47.0091 15.2246 50.7972 21.4348 52.6321 29.7891H42.6016V13.9959ZM42.6016 32.9922H53.223C53.6054 35.5356 53.8125 38.2274 53.8125 41C53.8125 43.7726 53.6053 46.4644 53.223 49.0078H42.6016V32.9922ZM42.6016 68.0041V52.2093L52.6321 52.2109C50.7972 60.5653 47.0091 66.7754 42.6016 68.0041ZM49.5722 66.8428C52.8833 62.907 54.8855 57.2903 55.9213 52.2093H65.8101C62.6922 59.0834 56.8001 64.439 49.5722 66.8428ZM68.2266 41C68.2266 43.7858 67.8052 46.4749 67.0241 49.0078H56.47C56.8297 46.4299 57.0156 43.7419 57.0156 41C57.0156 38.2581 56.8297 35.5701 56.47 32.9922H67.0241C67.8052 35.5251 68.2266 38.2142 68.2266 41ZM55.9211 29.7891C54.8849 24.7076 52.8822 19.0919 49.572 15.1572C56.7999 17.561 62.6922 22.9166 65.8098 29.7891H55.9211Z" fill="#9DC9FF"/>
</svg>
