<svg width="90" height="59" viewBox="0 0 90 59" fill="none" xmlns="http://www.w3.org/2000/svg">
<path d="M83.2597 0H6.74033C3.01764 0 0 3.01764 0 6.74033V19.6552H90V6.74033C90 3.01764 86.9824 0 83.2597 0Z" fill="#FF4B55"/>
<path d="M0 52.2251C0 55.9477 3.01764 58.9655 6.74033 58.9655H83.2597C86.9822 58.9655 90 55.9478 90 52.2251V39.3103H0V52.2251Z" fill="#464655"/>
<path d="M90 19.6548H0V39.3089H90V19.6548Z" fill="#F5F5F5"/>
<path d="M49.9547 26.4189C49.9547 25.6495 49.2008 25.106 48.471 25.3494L47.0992 25.8066L46.766 23.7952C46.5669 22.5951 45.5386 21.7241 44.3216 21.7241H43.0386L41.6967 23.3757H43.4737L42.9764 25.8318L41.5292 25.3494C40.7992 25.106 40.0454 25.6495 40.0454 26.4189V34.7641L42.0428 32.7667L41.1017 35.5899H40.0456V37.2415H49.9549V35.5899H48.8988L47.9577 32.7667L49.9551 34.7641V26.4189H49.9547ZM44.1745 35.5897H42.8431L43.7586 33.1448L44.1745 33.6758V35.5897ZM45.8258 35.5897V33.6758L46.2417 33.1448L47.1572 35.5897H45.8258ZM45.0002 32.5964C45.0002 32.5964 42.4453 30.8674 42.5487 27.6418C42.5487 27.6418 44.123 27.3837 45.0002 25.9901C45.8775 27.3836 47.4518 27.6418 47.4518 27.6418C47.555 30.8675 45.0002 32.5964 45.0002 32.5964Z" fill="#F0C727"/>
</svg>
