<svg width="12" height="10" viewBox="0 0 12 10" fill="none" xmlns="http://www.w3.org/2000/svg">
<path d="M10.875 0.5H1.12501C0.50464 0.5 0 1.00464 0 1.62501V8.37501C0 8.99537 0.50464 9.50001 1.12501 9.50001H10.875C11.4954 9.50001 12 8.99537 12 8.37501V1.62501C12 1.00464 11.4954 0.5 10.875 0.5ZM10.875 1.25C10.9259 1.25 10.9744 1.26057 11.0187 1.27903L6 5.62879L0.981251 1.27903C1.02556 1.26059 1.07403 1.25 1.12498 1.25H10.875ZM10.875 8.74999H1.12501C0.918102 8.74999 0.749997 8.58191 0.749997 8.37498V2.07141L5.75427 6.40845C5.82496 6.46959 5.91248 6.5 6 6.5C6.08752 6.5 6.17504 6.46962 6.24573 6.40845L11.25 2.07141V8.37501C11.25 8.58191 11.0819 8.74999 10.875 8.74999Z" fill="white"/>
</svg>
