<svg width="50" height="48" viewBox="0 0 50 48" fill="none" xmlns="http://www.w3.org/2000/svg">
<g filter="url(#filter0_d)">
<ellipse cx="24.951" cy="24" rx="20.9422" ry="20" fill="white"/>
<path d="M45.3932 24C45.3932 34.7481 36.2628 43.5 24.951 43.5C13.6391 43.5 4.50879 34.7481 4.50879 24C4.50879 13.2519 13.6391 4.5 24.951 4.5C36.2628 4.5 45.3932 13.2519 45.3932 24Z" stroke="#F0F0F0"/>
</g>
<g clip-path="url(#clip0)">
<path d="M32.6078 17.25H17.2939C16.3195 17.25 15.5269 18.007 15.5269 18.9375V29.0625C15.5269 29.9931 16.3195 30.75 17.2939 30.75H32.6078C33.5822 30.75 34.3748 29.9931 34.3748 29.0625V18.9375C34.3748 18.007 33.5822 17.25 32.6078 17.25ZM32.6078 18.375C32.6878 18.375 32.764 18.3909 32.8336 18.4185L24.9508 24.9432L17.0681 18.4185C17.1377 18.3909 17.2138 18.375 17.2938 18.375H32.6078ZM32.6078 29.625H17.2939C16.9689 29.625 16.7048 29.3729 16.7048 29.0625V19.6071L24.5649 26.1127C24.6759 26.2044 24.8134 26.25 24.9508 26.25C25.0883 26.25 25.2258 26.2044 25.3368 26.1127L33.1968 19.6071V29.0625C33.1968 29.3729 32.9328 29.625 32.6078 29.625Z" fill="#4978B0"/>
</g>
<defs>
<filter id="filter0_d" x="0.00878906" y="0" width="49.8844" height="48" filterUnits="userSpaceOnUse" color-interpolation-filters="sRGB">
<feFlood flood-opacity="0" result="BackgroundImageFix"/>
<feColorMatrix in="SourceAlpha" type="matrix" values="0 0 0 0 0 0 0 0 0 0 0 0 0 0 0 0 0 0 127 0"/>
<feOffset/>
<feGaussianBlur stdDeviation="2"/>
<feColorMatrix type="matrix" values="0 0 0 0 0.766667 0 0 0 0 0.766667 0 0 0 0 0.766667 0 0 0 0.25 0"/>
<feBlend mode="normal" in2="BackgroundImageFix" result="effect1_dropShadow"/>
<feBlend mode="normal" in="SourceGraphic" in2="effect1_dropShadow" result="shape"/>
</filter>
<clipPath id="clip0">
<rect width="18.848" height="18" fill="white" transform="translate(15.5269 15)"/>
</clipPath>
</defs>
</svg>
