<svg width="32" height="32" viewBox="0 0 32 32" fill="none" xmlns="http://www.w3.org/2000/svg">
<path d="M28.349 14.8321C28.2547 13.6595 27.9966 12.5187 27.5781 11.4254L30.4619 9.11567L25.7757 3.26429L22.9094 5.5596C21.9198 4.89298 20.8496 4.37823 19.7144 4.02335V0.381104H12.2175V4.0471C11.0305 4.42698 9.91656 4.98235 8.89075 5.70517L5.99444 3.45423L1.39381 9.37366L4.34137 11.664C3.94781 12.7598 3.7135 13.8993 3.64169 15.0676L0 15.9391L1.74431 23.2299L4.30638 22.617C5.56844 21.3549 6.70781 20.2155 8.206 18.7174C6.21469 13.3129 10.2179 7.53567 16.0053 7.53567C20.5941 7.53567 24.3144 11.256 24.3144 15.8447C24.3144 21.5123 18.7531 25.514 13.3907 23.7334C12.9624 24.1617 8.52487 28.5992 7.8355 29.2886L12.7791 31.6189L14.4234 28.1303C15.5592 28.2765 16.6925 28.2647 17.8064 28.1022L19.4907 31.5445L26.2249 28.2497L24.5449 24.8161C25.3771 24.0245 26.0906 23.128 26.6734 22.1391L30.3626 22.965L32 15.6492L28.349 14.8321Z" fill="#628DBF"/>
<path d="M21.3309 13.6912L20.8048 12.3681L17.6392 15.533L16.2173 14.1111L19.3829 10.9461L18.0597 10.4194C12.8805 8.35937 8.09236 14.0256 10.8102 18.7635C3.81861 25.7551 9.79367 19.7807 1.39404 28.1803L3.84367 30.6299C8.72311 25.7505 3.98354 30.4907 13.3473 21.1269C18.1272 23.4451 23.3025 18.6446 21.3309 13.6912Z" fill="#628DBF"/>
</svg>
