<svg width="32" height="32" viewBox="0 0 32 32" fill="none" xmlns="http://www.w3.org/2000/svg">
<g clip-path="url(#clip0_1494_418)">
<path d="M21.493 2.57146L6.97171 10.0061L1.19971 7.16612L15.465 0.122122C15.785 -0.0405446 16.169 -0.0405446 16.505 0.122122L21.493 2.57146Z" fill="#628DBF"/>
<path d="M30.7841 7.16683L16.0081 14.4868L10.4748 11.7602L9.6748 11.3535L24.2121 3.92017L25.0121 4.3255L30.7841 7.16683Z" fill="#628DBF"/>
<path d="M14.824 16.5965L14.808 32.0005L0.656 24.6152C0.256 24.4045 0 23.9818 0 23.5272V9.27649L5.99733 12.2312V17.4258C5.99733 18.0912 6.54133 18.6432 7.19733 18.6432C7.85333 18.6432 8.39733 18.0912 8.39733 17.4258V13.4325L9.19733 13.8218L14.824 16.5965Z" fill="#628DBF"/>
<path d="M31.985 9.29224L17.225 16.5802L17.209 31.9842L32.001 24.2602L31.985 9.29224Z" fill="#628DBF"/>
</g>
<defs>
<clipPath id="clip0_1494_418">
<rect width="32" height="32" fill="white"/>
</clipPath>
</defs>
</svg>
