<svg width="32" height="32" viewBox="0 0 32 32" fill="none" xmlns="http://www.w3.org/2000/svg">
<path d="M19.0876 15.8325C23.4526 15.8325 27.0033 12.2813 27.0033 7.91625C27.0033 3.55125 23.4526 0 19.0876 0C14.7226 0 11.1714 3.55125 11.1714 7.91625C11.1714 12.2813 14.7226 15.8325 19.0876 15.8325ZM18.1501 3.26313V3.04813C18.1501 2.53 18.5695 2.11063 19.0876 2.11063C19.6051 2.11063 20.0251 2.53 20.0251 3.04813V3.26438C21.1408 3.50375 21.9801 4.4975 21.9801 5.68375C21.9801 6.20125 21.5601 6.62125 21.0426 6.62125C20.5245 6.62125 20.1051 6.20125 20.1051 5.68375C20.1051 5.35313 19.8358 5.08375 19.5051 5.08375H18.6645C18.3339 5.08375 18.0645 5.35313 18.0645 5.68375C18.0645 5.87313 18.1551 6.05313 18.3076 6.16563L19.0876 6.74313L20.9826 8.14563C21.6051 8.60625 21.9801 9.34313 21.9851 10.1181V10.1269C21.9895 10.7881 21.7364 11.4119 21.2714 11.8825C20.9264 12.2319 20.4951 12.4663 20.0251 12.565V12.7844C20.0251 13.3025 19.6051 13.7219 19.0876 13.7219C18.5695 13.7219 18.1501 13.3025 18.1501 12.7844V12.5681C17.6926 12.4706 17.272 12.2456 16.932 11.9094C16.4614 11.445 16.2001 10.825 16.1964 10.1638C16.1933 9.64625 16.6101 9.22375 17.1276 9.22063H17.1339C17.6489 9.22063 18.0683 9.63688 18.0714 10.1525C18.0726 10.4761 18.333 10.7488 18.6745 10.7488C19.1925 10.7456 18.9996 10.7468 19.5139 10.7438C19.8466 10.7411 20.1127 10.4711 20.1101 10.1394V10.1306C20.1089 9.94313 20.0183 9.76438 19.867 9.6525L19.0876 9.07563L17.192 7.67313C16.5645 7.20813 16.1895 6.46438 16.1895 5.68375C16.1895 4.495 17.0314 3.50063 18.1501 3.26313Z" fill="#628DBF"/>
<path d="M6.26167 20.3371C6.02136 19.9205 5.48754 19.7755 5.06836 20.0173L0.658481 22.563C0.240918 22.8046 0.097668 23.3387 0.338731 23.7568L4.84586 31.5632C5.08711 31.9806 5.62086 32.124 6.03917 31.883L10.449 29.3367C10.8672 29.0956 11.0099 28.5615 10.7688 28.1434L6.26167 20.3371Z" fill="#628DBF"/>
<path d="M31.5297 18.7787C31.1054 18.1893 30.2841 18.0562 29.6953 18.4806C27.9091 19.7675 24.4791 22.2387 24.2066 22.4356C24.081 22.5425 23.9491 22.6393 23.8116 22.725C23.2722 23.0643 22.6466 23.2456 21.9935 23.2456H17.5029C16.9854 23.2456 16.5654 22.8262 16.5654 22.3081C16.5654 21.7893 16.986 21.3706 17.5029 21.3706H22.3054C23.011 21.3706 23.576 20.7831 23.5466 20.0762C23.5191 19.4056 22.9466 18.8856 22.2753 18.8856H18.6197C18.3722 18.6237 18.101 18.3837 17.8103 18.1693C16.811 17.4324 15.576 16.9968 14.2391 16.9968C11.8622 16.9968 9.49723 18.4943 8.5166 20.4931L12.3516 27.135H19.5454C20.9579 27.135 22.3491 26.7737 23.5735 26.0693C23.9979 25.8256 24.4522 25.5324 24.9447 25.1787C27.0085 23.6962 31.2278 20.6162 31.231 20.6143C31.821 20.1906 31.9547 19.3681 31.5297 18.7787Z" fill="#628DBF"/>
</svg>
