<svg width="32" height="32" viewBox="0 0 32 32" fill="none" xmlns="http://www.w3.org/2000/svg">
<g clip-path="url(#clip0_1494_423)">
<path d="M25.5606 19.6418C26.1097 19.0303 26.1097 18.1398 25.5606 17.5906C25.0114 17.0415 24.1209 17.0415 23.5719 17.5906L19.9258 21.2366C19.5597 21.6028 18.9661 21.6028 18.6 21.2366C18.2339 20.8705 18.2339 20.2768 18.6 19.9107L23.5719 14.9389C24.1209 14.3898 24.1209 13.4993 23.5719 12.9502C23.0227 12.401 22.1322 12.401 21.5831 12.9502L16.6113 17.9221C16.2451 18.2881 15.6516 18.2881 15.2854 17.9221C14.9193 17.5559 14.9193 16.9623 15.2854 16.5961L21.5831 10.2985C22.1322 9.74944 22.1322 8.85894 21.5831 8.30988C21.0339 7.76069 20.1434 7.76069 19.5944 8.30988L13.2967 14.6074C12.9306 14.9736 12.337 14.9736 11.9709 14.6074C11.6048 14.2413 11.6048 13.6478 11.9709 13.2816L16.9428 8.30988C17.4918 7.76069 17.4918 6.87019 16.9428 6.32113C16.3936 5.77194 15.5031 5.77194 14.954 6.32113L5.50382 15.7633L5.16338 9.92394C5.13875 9.46044 4.94457 9.02407 4.61638 8.69588C3.88557 7.96494 2.69563 7.96494 1.96475 8.69588C1.61513 9.04551 1.42925 9.50051 1.41638 9.97569C0.572754 20.6313 -1.855 24.7636 2.62757 29.2462C6.28875 32.9074 12.2247 32.9074 15.8859 29.3087L25.5606 19.6418Z" fill="#5F8FC9"/>
<path d="M30.0509 20.5115C32.616 17.9464 32.6167 13.7947 30.0509 11.1683L22.0959 3.21327C19.6185 0.796522 15.2935 0.796522 12.8161 3.27577L10.1013 5.98958C9.05116 7.04014 8.62535 8.46827 8.78273 9.84121L13.6279 4.99533C14.2477 4.37552 15.0717 4.03402 15.9479 4.03402C16.8249 4.03402 17.6489 4.37552 18.2687 4.99533C18.6615 5.38808 18.9425 5.86233 19.0955 6.38052C19.5524 6.14708 20.0614 6.02346 20.5887 6.02346C21.4649 6.02346 22.288 6.36402 22.9077 6.98296C23.5285 7.60371 23.87 8.42764 23.87 9.30383C23.87 9.83208 23.7464 10.3411 23.512 10.798C24.0311 10.9508 24.5054 11.2319 24.8981 11.6256C25.928 12.6546 26.1286 14.2046 25.4996 15.4378C26.0178 15.5907 26.493 15.8709 26.8857 16.2636C28.1665 17.5436 28.1665 19.6264 26.8867 20.9054L23.2684 24.5236C24.7059 24.7566 26.2306 24.3318 27.3371 23.2253L30.0509 20.5115Z" fill="#5F8FC9"/>
</g>
<defs>
<clipPath id="clip0_1494_423">
<rect width="32" height="32" fill="white"/>
</clipPath>
</defs>
</svg>
