<svg width="31" height="32" viewBox="0 0 31 32" fill="none" xmlns="http://www.w3.org/2000/svg">
<path d="M21.4904 9.68632C22.2853 9.53212 23.2344 9.42415 24.613 9.42415V7.52667C22.5187 7.52667 21.2902 7.7636 20.2251 8.03191L21.4904 9.68632Z" fill="#5F8FC9"/>
<path d="M9.92897 8.03191C8.86385 7.7636 7.63543 7.52667 5.54102 7.52667V9.42415C6.91969 9.42415 7.86882 9.53212 8.66371 9.68632L9.92897 8.03191Z" fill="#5F8FC9"/>
<path d="M15.0768 8.79164C17.3508 8.79164 18.4569 8.49817 19.628 8.18749C19.8243 8.13543 20.0217 8.08306 20.225 8.03189L22.4804 2.13567L21.826 1.71734C21.7163 1.64714 19.0935 0 15.0768 0C11.0601 0 8.43736 1.64714 8.32769 1.71728L7.67334 2.13561L9.92879 8.03183C10.1321 8.08306 10.3295 8.13537 10.5257 8.18742C11.6967 8.49817 12.8029 8.79164 15.0768 8.79164Z" fill="#5F8FC9"/>
<path d="M25.3525 16.4747C24.3034 13.8049 22.9617 11.4559 21.4904 9.68622C20.9742 9.78634 20.5229 9.90588 20.0619 10.0283C18.8373 10.3531 17.5711 10.689 15.077 10.689C12.5829 10.689 11.3167 10.3531 10.0921 10.0282C9.63105 9.90589 9.17976 9.78628 8.66362 9.68616C7.18256 11.4677 5.8322 13.8377 4.78097 16.5271C3.5619 19.6456 2.86279 22.896 2.86279 25.4448C2.86279 27.6044 3.36343 29.1741 4.39345 30.2435C6.19981 32.1193 9.23644 32.0492 12.7524 31.968C13.5049 31.9506 14.2831 31.9326 15.077 31.9326C15.871 31.9326 16.6491 31.9506 17.4016 31.968C18.102 31.9842 18.7834 31.9999 19.4398 31.9999C22.0786 31.9999 24.3141 31.7456 25.7606 30.2435C26.7906 29.1741 27.2913 27.6043 27.2913 25.4448C27.2912 22.8796 26.5846 19.6101 25.3525 16.4747ZM14.1187 18.4683C14.6005 18.8694 15.4629 19.2226 16.243 19.5152C19.1626 20.5945 18.71 24.8509 15.9178 25.7015V27.1338H14.1298V25.7935C13.2 25.7164 12.4231 25.1277 11.5686 24.5253L12.5474 22.9374L13.2955 23.4567C13.931 23.8979 14.1889 23.9406 15.0178 23.9354C16.3273 23.9885 17.1612 21.8857 15.6472 21.3042C14.3301 20.8101 13.5676 20.4211 13.0153 19.9613C11.4105 18.6059 12.2565 15.7513 14.1298 15.1407V13.7882H15.9178V15.003C17.062 15.2228 17.5209 15.6018 18.3332 16.048L17.4849 17.7182C17.4849 17.7182 16.698 17.2681 16.698 17.2682C16.0741 16.8718 14.2609 16.3417 13.9667 17.8804C13.9531 17.9773 13.9239 18.3062 14.1187 18.4683Z" fill="#5F8FC9"/>
</svg>
