<svg width="26" height="32" viewBox="0 0 26 32" fill="none" xmlns="http://www.w3.org/2000/svg">
<path d="M22.08 0H3.52C1.57824 0 0 1.644 0 3.66667V28.3333C0 30.356 1.57824 32 3.52 32H22.08C24.0218 32 25.6 30.356 25.6 28.3333V3.66667C25.6 1.644 24.0218 0 22.08 0ZM11.2 17.3333V10.768C14.272 11.2547 16.64 14 16.64 17.3333C16.64 21.0093 13.769 24 10.24 24C8.82176 24 7.52256 23.5013 6.46016 22.684L10.9184 18.04C11.0989 17.8533 11.2 17.5987 11.2 17.3333ZM9.28 10.768V16.92L5.10336 21.2707C4.31872 20.164 3.84 18.8107 3.84 17.3333C3.84 14 6.208 11.2547 9.28 10.768ZM20.8 28.3333H4.8C4.27008 28.3333 3.84 27.8853 3.84 27.3333C3.84 26.7813 4.27008 26.3333 4.8 26.3333H20.8C21.3299 26.3333 21.76 26.7813 21.76 27.3333C21.76 27.8853 21.3299 28.3333 20.8 28.3333ZM20.8 24H18.88C18.3501 24 17.92 23.552 17.92 23C17.92 22.448 18.3501 22 18.88 22H20.8C21.3299 22 21.76 22.448 21.76 23C21.76 23.552 21.3299 24 20.8 24ZM20.8 20.3333H18.88C18.3501 20.3333 17.92 19.8853 17.92 19.3333C17.92 18.7813 18.3501 18.3333 18.88 18.3333H20.8C21.3299 18.3333 21.76 18.7813 21.76 19.3333C21.76 19.8853 21.3299 20.3333 20.8 20.3333ZM20.8 16.3333H18.88C18.3501 16.3333 17.92 15.8853 17.92 15.3333C17.92 14.7813 18.3501 14.3333 18.88 14.3333H20.8C21.3299 14.3333 21.76 14.7813 21.76 15.3333C21.76 15.8853 21.3299 16.3333 20.8 16.3333ZM20.8 12.6667H18.88C18.3501 12.6667 17.92 12.2187 17.92 11.6667C17.92 11.1147 18.3501 10.6667 18.88 10.6667H20.8C21.3299 10.6667 21.76 11.1147 21.76 11.6667C21.76 12.2187 21.3299 12.6667 20.8 12.6667Z" fill="#5F8FC9"/>
</svg>
