<svg width="32" height="32" viewBox="0 0 32 32" fill="none" xmlns="http://www.w3.org/2000/svg">
<path d="M27.1304 18.7827C25.9798 18.7827 25.0435 19.719 25.0435 20.8696C25.0435 22.7868 23.4824 24.3478 21.5652 24.3478H10.4348C8.51758 24.3478 6.95654 22.7868 6.95654 20.8696C6.95654 19.719 6.02021 18.7827 4.86958 18.7827H0V27.8261C0 29.7433 1.56104 31.3044 3.47824 31.3044H28.5217C30.4389 31.3044 31.9999 29.7433 31.9999 27.8261V18.7827H27.1304Z" fill="#628DBF"/>
<path d="M19.2737 14.8132C19.0023 14.5419 18.5613 14.5419 18.29 14.8132L16.6955 16.4077V1.39129C16.6955 1.00729 16.3839 0.695618 15.9999 0.695618C15.6159 0.695618 15.3042 1.00729 15.3042 1.39129V18.0869C15.3042 18.368 15.474 18.6226 15.7341 18.7297C15.8204 18.7659 15.9108 18.7826 15.9999 18.7826C16.1807 18.7826 16.3588 18.7117 16.491 18.5795L19.2737 15.7968C19.545 15.5256 19.545 15.0845 19.2737 14.8132Z" fill="#628DBF"/>
<path d="M31.182 15.9541L26.1663 8.42986C25.2606 7.07197 23.7454 6.26086 22.1148 6.26086H18.087V13.3356C18.3082 13.2577 18.5419 13.2174 18.7827 13.2174C19.3392 13.2174 19.8637 13.4344 20.2589 13.8282C21.0728 14.6421 21.0728 15.9652 20.2589 16.7791L17.4762 19.5617C17.0811 19.9569 16.5566 20.1739 16 20.1739C15.5367 20.1739 15.0998 20.0153 14.7381 19.7385C14.695 19.7065 14.6547 19.6731 14.6143 19.6369C14.5851 19.6105 14.5517 19.591 14.5238 19.5632L11.7412 16.7806C11.3475 16.3854 11.1305 15.8609 11.1305 15.3044C11.1305 14.7478 11.3475 14.2233 11.7412 13.8282C12.1349 13.433 12.6608 13.2174 13.2174 13.2174C13.4595 13.2174 13.6919 13.2661 13.9131 13.344V6.26086H10.6505C8.53845 6.26086 6.58369 7.31406 5.42191 9.07688L0.942002 15.8776C0.603916 16.3409 0.361829 16.8529 0.20459 17.3913H4.86965C6.78685 17.3913 8.34789 18.9524 8.34789 20.8695C8.34789 22.0202 9.28421 22.9565 10.4348 22.9565H21.5653C22.7159 22.9565 23.6522 22.0202 23.6522 20.8695C23.6522 18.9524 25.2133 17.3913 27.1305 17.3913H31.8248C31.6884 16.8835 31.4783 16.3979 31.182 15.9541Z" fill="#628DBF"/>
<path d="M16.4913 17.5958L13.7086 14.8132C13.4373 14.5419 12.9963 14.5419 12.725 14.8132C12.4537 15.0845 12.4537 15.5256 12.725 15.7969L15.5076 18.5795C15.644 18.7144 15.822 18.7827 16.0001 18.7827C16.1782 18.7827 16.3563 18.7145 16.4913 18.5795C16.7626 18.3081 16.7626 17.8671 16.4913 17.5958Z" fill="#628DBF"/>
</svg>
