<svg width="104" height="91" viewBox="0 0 104 91" fill="none" xmlns="http://www.w3.org/2000/svg">
<path d="M102.507 48.7352L79.8092 88.0649C78.7331 89.9238 76.7764 91 74.7218 91H29.2285C28.4458 91 27.6632 90.8043 26.9783 90.6086C25.8043 90.1195 24.826 89.2389 24.1411 88.1628L23.6519 87.2822L12.3031 67.7152L1.44337 48.7352C0.367184 46.8764 0.367184 44.724 1.44337 42.8651L24.1411 3.53545C25.2173 1.67659 27.174 0.600403 29.2285 0.600403H74.7218C76.7764 0.600403 78.7331 1.67659 79.8092 3.53545L80.8854 5.49216L102.507 42.963C103.583 44.724 103.583 46.8764 102.507 48.7352Z" fill="white"/>
</svg>
