<svg width="86" height="61" viewBox="0 0 86 61" fill="none" xmlns="http://www.w3.org/2000/svg">
<path d="M85.9997 3.69813V21.491H26.6897L0.993164 1.50338C1.52791 1.00341 2.23324 0.727185 2.96548 0.732434H83.034C84.6704 0.737027 85.9951 2.0624 85.9997 3.69813Z" fill="#4C8056"/>
<path d="M85.9997 39.2838V57.0773C85.9951 58.7131 84.6704 60.0378 83.034 60.0424H2.96548C2.23324 60.0476 1.52791 59.7721 0.993164 59.2714L26.6891 39.2838H85.9997Z" fill="#C03A2B"/>
<path d="M26.6899 21.491H85.9999V39.2839H26.6899V21.491Z" fill="#E6E7E8"/>
<path d="M26.69 21.491V39.2839L0.993378 59.2715C0.361527 58.7177 -0.000655237 57.9179 8.89934e-07 57.0774V3.69813C-0.000655237 2.85763 0.361527 2.05716 0.993378 1.50339L26.69 21.491Z" fill="#2C2F38"/>
</svg>
