<svg width="30" height="30" viewBox="0 0 30 30" fill="none" xmlns="http://www.w3.org/2000/svg">
<g clip-path="url(#clip0)">
<path d="M15.9414 13.5943H16.0922L16.1626 13.4608C16.6632 12.5108 17.9138 11.5586 19.823 11.5586C21.8412 11.5586 22.9736 12.1945 23.6215 13.206C24.2863 14.244 24.4766 15.727 24.4766 17.4998V24.5352H20.9336V18.3197C20.9336 17.5628 20.9196 16.6378 20.6177 15.9013C20.4639 15.5263 20.2314 15.1885 19.8798 14.9461C19.5276 14.7033 19.0764 14.5703 18.5101 14.5703C17.3642 14.5703 16.6347 15.026 16.2086 15.7417C15.7967 16.4337 15.6875 17.3377 15.6875 18.2103V24.5352H12.2031V11.793H15.6875V13.3443V13.5943H15.9375H15.9414ZM9.12546 24.5352H5.5239V11.793H9.12546V24.5352ZM7.38373 5.17188C8.57077 5.17188 9.5347 6.13604 9.5347 7.32399C9.5347 8.51243 8.57074 9.47656 7.38373 9.47656C6.19171 9.47656 5.23047 8.51246 5.23047 7.32399C5.23047 6.13601 6.19168 5.17188 7.38373 5.17188ZM29.75 3.51562V26.4844C29.75 28.2849 28.2849 29.75 26.4844 29.75H3.51562C1.71507 29.75 0.25 28.2849 0.25 26.4844V3.51562C0.25 1.71507 1.71507 0.25 3.51562 0.25H26.4844C28.2849 0.25 29.75 1.71507 29.75 3.51562ZM27.9062 3.51562C27.9062 2.73142 27.2686 2.09375 26.4844 2.09375H3.51562C2.73142 2.09375 2.09375 2.73142 2.09375 3.51562V26.4844C2.09375 27.2686 2.73142 27.9062 3.51562 27.9062H26.4844C27.2686 27.9062 27.9062 27.2686 27.9062 26.4844V3.51562Z" fill="#F6F6F6" stroke="#3F3F3F" stroke-width="0.5"/>
</g>
<defs>
<clipPath id="clip0">
<rect width="30" height="30" fill="white"/>
</clipPath>
</defs>
</svg>
