<svg width="61" height="58" viewBox="0 0 61 58" fill="none" xmlns="http://www.w3.org/2000/svg">
<g filter="url(#filter0_d)">
<ellipse cx="30.7153" cy="29" rx="26.1777" ry="25" fill="white"/>
<path d="M56.3931 29C56.3931 42.5095 44.9187 53.5 30.7153 53.5C16.512 53.5 5.0376 42.5095 5.0376 29C5.0376 15.4905 16.512 4.5 30.7153 4.5C44.9187 4.5 56.3931 15.4905 56.3931 29Z" stroke="#F0F0F0"/>
</g>
<g clip-path="url(#clip0)">
<path d="M26.7821 32.616C24.2751 28.859 24.5902 29.3277 24.518 29.2298C23.6052 28.0003 23.1228 26.5532 23.1228 25.0449C23.1228 21.045 26.5215 17.75 30.7154 17.75C34.8955 17.75 38.3079 21.0385 38.3079 25.0449C38.3079 26.5522 37.8154 28.0372 36.8727 29.2833L34.6487 32.6161C37.0265 32.9651 41.0688 34.005 41.0688 36.2949C41.0688 37.1297 40.4983 38.3193 37.7805 39.2462C35.8827 39.8935 33.3736 40.25 30.7154 40.25C25.7445 40.25 20.3619 38.9109 20.3619 36.2949C20.3619 34.0046 24.3994 32.9658 26.7821 32.616ZM35.7196 28.5581C35.7272 28.5468 35.7351 28.5357 35.7434 28.5248C36.5278 27.4942 36.9274 26.2728 36.9274 25.0449C36.9274 21.7482 34.1478 19.0684 30.7154 19.0684C27.29 19.0684 24.5033 21.7494 24.5033 25.0449C24.5033 26.2748 24.8953 27.4548 25.6374 28.4582C25.7038 28.542 25.3569 28.0273 30.7154 36.0571L35.7196 28.5581ZM30.7154 38.9316C36.1449 38.9316 39.6884 37.4075 39.6884 36.2949C39.6884 35.5471 37.8676 34.3176 33.833 33.8383L31.2974 37.638C31.1707 37.8279 30.9512 37.9429 30.7154 37.9429C30.4796 37.9429 30.26 37.8279 30.1333 37.638L27.5978 33.8383C23.5631 34.3176 21.7423 35.5471 21.7423 36.2949C21.7423 37.398 25.2539 38.9316 30.7154 38.9316Z" fill="#4978B0"/>
<path d="M30.7153 21.749C32.6183 21.749 34.1665 23.2276 34.1665 25.0449C34.1665 26.8623 32.6183 28.3408 30.7153 28.3408C28.8124 28.3408 27.2642 26.8623 27.2642 25.0449C27.2642 23.2276 28.8124 21.749 30.7153 21.749ZM30.7153 27.0225C31.8571 27.0225 32.786 26.1353 32.786 25.0449C32.786 23.9545 31.8571 23.0674 30.7153 23.0674C29.5736 23.0674 28.6446 23.9545 28.6446 25.0449C28.6446 26.1353 29.5736 27.0225 30.7153 27.0225Z" fill="#4978B0"/>
</g>
<defs>
<filter id="filter0_d" x="0.537598" y="0" width="60.3555" height="58" filterUnits="userSpaceOnUse" color-interpolation-filters="sRGB">
<feFlood flood-opacity="0" result="BackgroundImageFix"/>
<feColorMatrix in="SourceAlpha" type="matrix" values="0 0 0 0 0 0 0 0 0 0 0 0 0 0 0 0 0 0 127 0"/>
<feOffset/>
<feGaussianBlur stdDeviation="2"/>
<feColorMatrix type="matrix" values="0 0 0 0 0.766667 0 0 0 0 0.766667 0 0 0 0 0.766667 0 0 0 0.25 0"/>
<feBlend mode="normal" in2="BackgroundImageFix" result="effect1_dropShadow"/>
<feBlend mode="normal" in="SourceGraphic" in2="effect1_dropShadow" result="shape"/>
</filter>
<clipPath id="clip0">
<rect width="23.56" height="22.5" fill="white" transform="matrix(-1 0 0 1 42.4951 17.75)"/>
</clipPath>
</defs>
</svg>
