<svg width="30" height="24" viewBox="0 0 30 24" fill="none" xmlns="http://www.w3.org/2000/svg">
<path d="M27.1875 0.75H2.81252C1.2616 0.75 0 2.0116 0 3.56252V20.4375C0 21.9884 1.2616 23.25 2.81252 23.25H27.1875C28.7384 23.25 30 21.9884 30 20.4375V3.56252C30 2.0116 28.7384 0.75 27.1875 0.75ZM27.1875 2.62499C27.3149 2.62499 27.436 2.65142 27.5468 2.69757L15 13.572L2.45313 2.69757C2.56391 2.65148 2.68508 2.62499 2.81246 2.62499H27.1875ZM27.1875 21.375H2.81252C2.29525 21.375 1.87499 20.9548 1.87499 20.4375V4.67852L14.3857 15.5211C14.5624 15.674 14.7812 15.75 15 15.75C15.2188 15.75 15.4376 15.674 15.6143 15.5211L28.125 4.67852V20.4375C28.1249 20.9548 27.7047 21.375 27.1875 21.375Z" fill="#9DC9FF"/>
</svg>
