<svg width="85" height="57" viewBox="0 0 85 57" fill="none" xmlns="http://www.w3.org/2000/svg">
<mask id="mask0" mask-type="alpha" maskUnits="userSpaceOnUse" x="0" y="0" width="85" height="57">
<rect width="85" height="57" rx="7" fill="#C4C4C4"/>
</mask>
<g mask="url(#mask0)">
<path d="M86 0H0V57.3339H86V0Z" fill="#F0F0F0"/>
<path d="M86 7.16608H0V14.3321H86V7.16608Z" fill="#D80027"/>
<path d="M86 21.5H0V28.6661H86V21.5Z" fill="#D80027"/>
<path d="M86 35.8321H0V42.9982H86V35.8321Z" fill="#D80027"/>
<path d="M86 50.1661H0V57.3321H86V50.1661Z" fill="#D80027"/>
<path d="M43 0H0V30.8721H43V0Z" fill="#0052B4"/>
<path d="M23.6697 22.5243C19.7547 22.5243 16.5811 19.3505 16.5811 15.4356C16.5811 11.5208 19.7548 8.34703 23.6697 8.34703C24.8903 8.34703 26.0387 8.65576 27.0417 9.19897C25.4686 7.66071 23.3173 6.71118 20.9432 6.71118C16.1249 6.71118 12.2188 10.6173 12.2188 15.4356C12.2188 20.254 16.125 24.1601 20.9432 24.1601C23.3171 24.1601 25.4686 23.2106 27.0417 21.6723C26.0389 22.2155 24.8903 22.5243 23.6697 22.5243Z" fill="#FFDA44"/>
<path d="M25.667 10.45L26.9256 13.0817L29.7677 12.425L28.495 15.0497L30.7807 16.8624L27.9348 17.5039L27.9428 20.421L25.667 18.5958L23.3912 20.421L23.3991 17.5039L20.5532 16.8624L22.8389 15.0497L21.5659 12.425L24.4083 13.0817L25.667 10.45Z" fill="#FFDA44"/>
</g>
</svg>
