<svg width="38" height="43" viewBox="0 0 38 43" fill="none" xmlns="http://www.w3.org/2000/svg">
<ellipse cx="19" cy="37.5" rx="15" ry="5.5" fill="#C8D8EC"/>
<ellipse cx="19" cy="37.5" rx="9" ry="3.5" fill="#4978B0" fill-opacity="0.7"/>
<g clip-path="url(#clip0)">
<path d="M19.0002 26.8454C24.5858 26.8454 29.1137 22.3174 29.1137 16.7319C29.1137 11.1464 24.5858 6.61841 19.0002 6.61841C13.4147 6.61841 8.88672 11.1464 8.88672 16.7319C8.88672 22.3174 13.4147 26.8454 19.0002 26.8454Z" fill="white"/>
<path d="M30.8839 4.92238C27.7097 1.74815 23.4892 0 19.0001 0C14.511 0 10.2905 1.74815 7.1163 4.92238C3.942 8.09675 2.19385 12.3171 2.19385 16.8063C2.19385 24.726 7.73054 31.5633 15.4222 33.2295L19.0001 38L22.5781 33.2294C30.2697 31.5632 35.8064 24.726 35.8064 16.8063C35.8064 12.3171 34.0582 8.09675 30.8839 4.92238ZM19.0001 4.38748C25.8069 4.38748 31.3445 9.92521 31.3445 16.7319C31.3445 23.5386 25.8069 29.0763 19.0001 29.0763C12.1933 29.0763 6.65569 23.5386 6.65569 16.7319C6.65569 9.92521 12.1933 4.38748 19.0001 4.38748Z" fill="white"/>
</g>
<defs>
<clipPath id="clip0">
<rect width="38" height="38" fill="white"/>
</clipPath>
</defs>
</svg>
