<svg width="24" height="24" viewBox="0 0 24 24" fill="none" xmlns="http://www.w3.org/2000/svg">
<path d="M22.4616 4.30739H1.53848C0.688594 4.30739 0 3.6188 0 2.76895C0 1.91911 0.688594 1.23047 1.53848 1.23047H22.4616C23.3114 1.23047 24 1.91906 24 2.76895C24 3.61884 23.3114 4.30739 22.4616 4.30739Z" fill="white"/>
<path d="M13.8462 13.5379H1.53848C0.688594 13.5379 0 12.8493 0 11.9994C0 11.1496 0.688594 10.4609 1.53848 10.4609H13.8462C14.696 10.4609 15.3847 11.1495 15.3847 11.9994C15.3847 12.8493 14.696 13.5379 13.8462 13.5379Z" fill="white"/>
<path d="M22.461 13.5389H19.9994C19.1496 13.5389 18.4609 12.8503 18.4609 12.0004C18.4609 11.1505 19.1495 10.4619 19.9994 10.4619H22.461C23.3108 10.4619 23.9994 11.1505 23.9994 12.0004C23.9994 12.8503 23.3108 13.5389 22.461 13.5389Z" fill="white"/>
<path d="M22.4616 22.7694H1.53848C0.688594 22.7694 0 22.0807 0 21.2309C0 20.381 0.688594 19.6924 1.53848 19.6924H22.4616C23.3114 19.6924 24 20.381 24 21.2309C24 22.0807 23.3114 22.7694 22.4616 22.7694Z" fill="white"/>
</svg>
