<svg width="30" height="30" viewBox="0 0 30 30" fill="none" xmlns="http://www.w3.org/2000/svg">
<path d="M21.5613 30C20.5929 30 19.6327 29.8288 18.6938 29.4877C14.5574 27.985 10.7179 25.5377 7.59028 22.4101C4.46268 19.2826 2.01532 15.443 0.51274 11.3066C0.0298884 9.97729 -0.112606 8.60508 0.0893586 7.22795C0.27855 5.938 0.778217 4.68573 1.5344 3.60647C2.29392 2.52247 3.30649 1.62087 4.46262 0.999158C5.6955 0.336197 7.04117 0 8.46236 0C8.90437 0 9.28639 0.308835 9.37902 0.741005L10.8505 7.60785C10.9171 7.9188 10.8215 8.24234 10.5967 8.46721L8.08239 10.9815C10.4543 15.6973 14.303 19.546 19.0188 21.9179L21.5331 19.4036C21.7579 19.1788 22.0815 19.0833 22.3925 19.1498L29.2593 20.6213C29.6915 20.7139 30.0003 21.0959 30.0003 21.5379C30.0003 22.9591 29.6641 24.3049 29.0011 25.5377C28.3794 26.6939 27.4778 27.7064 26.3938 28.466C25.3146 29.2221 24.0623 29.7218 22.7723 29.911C22.3681 29.9704 21.9639 29.9999 21.5613 30ZM7.71333 1.91594C5.8387 2.12288 4.17482 3.10546 3.0699 4.68244C1.82741 6.45571 1.53768 8.63678 2.27499 10.6665C5.16378 18.6189 11.3816 24.8366 19.3339 27.7254C21.3636 28.4627 23.5447 28.1731 25.318 26.9305C26.895 25.8256 27.8775 24.1617 28.0845 22.2871L22.4983 21.0901L19.8725 23.7159C19.5931 23.9953 19.1685 24.0696 18.811 23.9015C13.2337 21.2813 8.7191 16.7667 6.0989 11.1894C5.93092 10.8318 6.00509 10.4073 6.28452 10.1279L8.91035 7.50209L7.71333 1.91594Z" fill="#9DC9FF"/>
<path d="M29.0625 15.9368C28.5448 15.9368 28.1251 15.5171 28.1251 14.9994C28.1251 7.76253 22.2375 1.87492 15.0006 1.87492C14.4829 1.87492 14.0632 1.45517 14.0632 0.937461C14.0632 0.419748 14.4829 0 15.0006 0C19.0071 0 22.7738 1.56017 25.6068 4.39318C28.4398 7.22619 30 10.9928 30 14.9994C30 15.5171 29.5803 15.9368 29.0625 15.9368Z" fill="#9DC9FF"/>
<path d="M25.3127 15.937C24.795 15.937 24.3752 15.5173 24.3752 14.9995C24.3752 9.83038 20.1698 5.62492 15.0006 5.62492C14.4829 5.62492 14.0632 5.20517 14.0632 4.68746C14.0632 4.16975 14.4829 3.75 15.0006 3.75C21.2036 3.75 26.2502 8.79653 26.2502 14.9995C26.2502 15.5173 25.8305 15.937 25.3127 15.937Z" fill="#9DC9FF"/>
<path d="M21.5628 15.9372C21.0451 15.9372 20.6254 15.5174 20.6254 14.9997C20.6254 11.8982 18.1021 9.37492 15.0006 9.37492C14.4829 9.37492 14.0632 8.95518 14.0632 8.43746C14.0632 7.91975 14.4829 7.5 15.0006 7.5C19.136 7.5 22.5003 10.8643 22.5003 14.9997C22.5003 15.5174 22.0806 15.9372 21.5628 15.9372Z" fill="#9DC9FF"/>
</svg>
