<svg width="52" height="52" viewBox="0 0 52 52" fill="none" xmlns="http://www.w3.org/2000/svg">
<path d="M42.7571 9.24219V15.342C43.7778 15.1958 44.8147 15.2009 45.8039 15.342V7.71875C45.8039 6.87781 45.1214 6.19531 44.2805 6.19531H36.6572C36.8031 7.21591 36.7985 8.25348 36.6572 9.24219H42.7571Z" fill="#A0A0A0"/>
<path d="M33.6225 27.5234C33.4763 26.5027 33.4814 25.4658 33.6225 24.4766H18.376C18.5218 25.4972 18.5172 26.5347 18.376 27.5234H33.6225Z" fill="#A0A0A0"/>
<path d="M51.3401 43.027L44.8056 38.5227C43.7929 37.8254 42.4168 38.5553 42.4168 39.777V42.7578H36.6572C36.8031 43.7785 36.7985 44.8159 36.6572 45.8047H42.4168V48.7856C42.4168 50.0173 43.8029 50.732 44.8056 50.0399L51.3401 45.5356C52.2172 44.9308 52.219 43.6331 51.3401 43.027Z" fill="#A0A0A0"/>
<path d="M9.24219 42.7579V36.658C8.21539 36.8043 7.17844 36.7982 6.19531 36.658V44.2813C6.19531 45.1222 6.87781 45.8047 7.71875 45.8047H15.342C15.1962 44.784 15.2008 43.7467 15.342 42.7579H9.24219Z" fill="#A0A0A0"/>
<path d="M26 0C21.8825 0 18.5078 3.24096 18.2925 7.3059C18.2017 6.97988 18.0035 6.67855 17.6927 6.46435L11.1575 1.96036C10.1479 1.26476 8.76952 1.98941 8.76952 3.21476V6.19531H4.67188C3.83053 6.19531 3.14844 6.87741 3.14844 7.71875C3.14844 8.56009 3.83053 9.24219 4.67188 9.24219H8.76962V12.2227C8.76962 13.4576 10.1569 14.1671 11.1576 13.4771L17.6928 8.97315C18.0032 8.75926 18.2017 8.45772 18.2926 8.13109C18.5076 12.1962 21.8822 15.4375 26 15.4375C30.2561 15.4375 33.7188 11.9749 33.7188 7.71875C33.7188 3.46257 30.2561 0 26 0Z" fill="#A0A0A0"/>
<path d="M26 52C30.2629 52 33.7188 48.5442 33.7188 44.2812C33.7188 40.0183 30.2629 36.5625 26 36.5625C21.7371 36.5625 18.2812 40.0183 18.2812 44.2812C18.2812 48.5442 21.7371 52 26 52Z" fill="#A0A0A0"/>
<path d="M44.2812 33.7188C48.5442 33.7188 52 30.2629 52 26C52 21.7371 48.5442 18.2812 44.2812 18.2812C40.0183 18.2812 36.5625 21.7371 36.5625 26C36.5625 30.2629 40.0183 33.7188 44.2812 33.7188Z" fill="#A0A0A0"/>
<path d="M7.71875 33.7188C11.9817 33.7188 15.4375 30.2629 15.4375 26C15.4375 21.7371 11.9817 18.2812 7.71875 18.2812C3.4558 18.2812 0 21.7371 0 26C0 30.2629 3.4558 33.7188 7.71875 33.7188Z" fill="#A0A0A0"/>
</svg>
