<svg width="52" height="52" viewBox="0 0 52 52" fill="none" xmlns="http://www.w3.org/2000/svg">
<path d="M25.999 0C16.1418 0 8.12402 8.01775 8.12402 17.875C8.12402 27.7323 16.1418 35.75 25.999 35.75C35.853 35.75 43.874 27.7323 43.874 17.875C43.874 8.01775 35.853 0 25.999 0ZM35.3948 15.3465L32.3073 19.214L32.6453 24.2677C32.6843 24.83 32.4275 25.3727 31.9628 25.701C31.68 25.8993 31.3518 26 31.0203 26C30.8058 26 30.588 25.9578 30.3865 25.87L25.999 24.0077L21.6148 25.87C21.0948 26.091 20.4968 26.0292 20.0385 25.701C19.577 25.3727 19.3203 24.83 19.356 24.2677L19.694 19.214L16.6065 15.3465C16.262 14.9175 16.1613 14.3422 16.3335 13.819C16.5058 13.2957 16.9315 12.8993 17.4645 12.7595L22.073 11.5538L24.6015 7.29625C25.1865 6.30825 26.8115 6.30825 27.3933 7.29625L29.9218 11.5538L34.5335 12.7595C35.0633 12.8993 35.489 13.299 35.6645 13.819C35.84 14.339 35.736 14.9143 35.3948 15.3465Z" fill="#A0A0A0"/>
<path d="M7.71755 28.4147L0.216548 41.4375C-0.111702 42.0095 -0.0629521 42.7212 0.336798 43.2412C0.736548 43.7612 1.4093 43.9952 2.0463 43.8197L11.5883 41.2555L14.1265 50.7975C14.2955 51.4312 14.8318 51.9025 15.4818 51.9902C15.5533 51.9967 15.628 52 15.6963 52C16.2715 52 16.811 51.6945 17.1035 51.1875L24.1983 38.909C17.149 38.311 11.091 34.2387 7.71755 28.4147Z" fill="#A0A0A0"/>
<path d="M51.7848 41.4375L44.2806 28.4147C40.9103 34.2387 34.8491 38.311 27.7998 38.909L34.8946 51.1875C35.1871 51.6945 35.7266 52 36.3018 52C36.3701 52 36.4448 51.9967 36.5131 51.987C37.1663 51.8992 37.6993 51.428 37.8716 50.7942L40.4098 41.2522L49.9518 43.8165C50.5888 43.992 51.2583 43.758 51.6613 43.238C52.0643 42.7212 52.1098 42.0095 51.7848 41.4375Z" fill="#A0A0A0"/>
</svg>
