<svg width="60" height="60" viewBox="0 0 60 60" fill="none" xmlns="http://www.w3.org/2000/svg">
<path d="M25.5217 18.94L29.9996 16.5858L34.4776 18.94C34.7099 19.0621 34.9716 19.1168 35.2333 19.0979C35.4951 19.079 35.7463 18.9872 35.9586 18.833C36.1708 18.6788 36.3358 18.4682 36.4346 18.2252C36.5335 17.9821 36.5624 17.7163 36.5181 17.4577L35.6626 12.4712L39.2856 8.93988C39.4735 8.75672 39.6064 8.52466 39.6692 8.26992C39.7321 8.01518 39.7225 7.74792 39.6414 7.49838C39.5603 7.24883 39.4111 7.02695 39.2105 6.85781C39.0099 6.68867 38.7659 6.57903 38.5063 6.54128L33.4997 5.81378L31.2607 1.27734C31.1446 1.04203 30.9649 0.843901 30.7421 0.705365C30.5192 0.566828 30.262 0.493408 29.9996 0.493408C29.7372 0.493408 29.4801 0.566828 29.2572 0.705365C29.0344 0.843901 28.8547 1.04203 28.7386 1.27734L26.4996 5.81378L21.493 6.54128C21.2333 6.57903 20.9894 6.68867 20.7888 6.85781C20.5882 7.02695 20.439 7.24883 20.3579 7.49838C20.2768 7.74792 20.2672 8.01518 20.33 8.26992C20.3929 8.52466 20.5258 8.75672 20.7137 8.93988L24.3364 12.4712L23.481 17.4577C23.4366 17.7163 23.4655 17.9821 23.5644 18.2252C23.6633 18.4682 23.8282 18.6788 24.0405 18.833C24.2528 18.9872 24.504 19.079 24.7657 19.0979C25.0274 19.1168 25.2892 19.0621 25.5214 18.94H25.5217Z" fill="#A0A0A0"/>
<path d="M58.9498 21.3741L54.9023 18.3389L55.1079 13.2838C55.1186 13.0216 55.0557 12.7616 54.9263 12.5332C54.797 12.3049 54.6062 12.1173 54.3758 11.9917C54.1453 11.8661 53.8843 11.8075 53.6223 11.8226C53.3603 11.8376 53.1077 11.9257 52.8931 12.0768L48.7561 14.9883L44.012 13.2305C43.766 13.1394 43.4994 13.1189 43.2423 13.1714C42.9852 13.2238 42.748 13.3472 42.5573 13.5275C42.3667 13.7078 42.2303 13.9378 42.1636 14.1915C42.0968 14.4453 42.1024 14.7126 42.1797 14.9634L43.6702 19.798L40.5326 23.7668C40.3699 23.9727 40.268 24.2199 40.2384 24.4807C40.2089 24.7414 40.2529 25.0052 40.3654 25.2422C40.478 25.4792 40.6546 25.6801 40.8754 25.8219C41.0961 25.9638 41.3521 26.0411 41.6145 26.0451L46.673 26.1214L49.478 30.3319C49.6064 30.5246 49.7803 30.6826 49.9844 30.7919C50.1885 30.9012 50.4165 30.9585 50.648 30.9585C50.7087 30.9584 50.7693 30.9545 50.8294 30.9468C51.0896 30.913 51.3352 30.8071 51.5384 30.641C51.7415 30.4749 51.8942 30.2553 51.979 30.0069L53.6149 25.2195L58.486 23.853C58.7386 23.7821 58.9664 23.6419 59.1435 23.4484C59.3207 23.2548 59.4401 23.0155 59.4884 22.7576C59.5366 22.4997 59.5117 22.2335 59.4166 21.9889C59.3214 21.7444 59.1597 21.5314 58.9498 21.374V21.3741Z" fill="#A0A0A0"/>
<path d="M18.3859 26.0452C18.6483 26.0412 18.9043 25.9639 19.125 25.822C19.3457 25.6802 19.5224 25.4794 19.6349 25.2423C19.7475 25.0053 19.7915 24.7415 19.7619 24.4808C19.7324 24.22 19.6305 23.9728 19.4678 23.7669L16.3302 19.7982L17.8207 14.9635C17.898 14.7127 17.9036 14.4454 17.8369 14.1916C17.7702 13.9378 17.6338 13.7078 17.4431 13.5275C17.2525 13.3472 17.0152 13.2238 16.7581 13.1713C16.501 13.1189 16.2344 13.1394 15.9883 13.2305L11.2442 14.9883L7.10753 12.0768C6.89295 11.9257 6.64036 11.8376 6.37833 11.8226C6.1163 11.8075 5.8553 11.8661 5.62484 11.9917C5.39438 12.1173 5.20367 12.3049 5.07428 12.5332C4.94489 12.7616 4.88198 13.0216 4.89268 13.2838L5.09835 18.3389L1.05081 21.3741C0.840897 21.5315 0.679216 21.7445 0.584046 21.9891C0.488876 22.2336 0.464013 22.4998 0.512269 22.7577C0.560525 23.0157 0.679974 23.2549 0.857111 23.4485C1.03425 23.6421 1.26201 23.7822 1.51464 23.8531L6.38577 25.2196L8.02136 30.0071C8.1062 30.2554 8.25882 30.475 8.46197 30.641C8.66511 30.8071 8.91066 30.9131 9.17087 30.9469C9.43107 30.9807 9.69554 30.941 9.93438 30.8324C10.1732 30.7237 10.3769 30.5504 10.5224 30.332L13.3274 26.1215L18.3859 26.0452Z" fill="#A0A0A0"/>
<path d="M47.3438 40.7812C47.9673 40.7812 48.5733 40.574 49.0663 40.1922C49.5593 39.8104 49.9116 39.2756 50.0677 38.6718C49.9116 38.0681 49.5593 37.5333 49.0663 37.1515C48.5733 36.7697 47.9673 36.5625 47.3438 36.5625H37.0313V30.1171C37.0313 28.3638 37.0313 24.8682 32.4314 24.4218C32.3014 24.4096 32.1703 24.4247 32.0465 24.4661C31.9226 24.5075 31.8088 24.5743 31.7123 24.6623C31.6158 24.7502 31.5387 24.8574 31.486 24.9769C31.4333 25.0963 31.4061 25.2255 31.4063 25.3561V31.7268C31.4062 31.9003 31.3581 32.0704 31.2671 32.2181L28.5938 36.5625H28.7109L24.8438 39.088V57.1532C25.4134 57.4834 26.0603 57.657 26.7188 57.6562H45.4688C46.0923 57.6562 46.6983 57.449 47.1913 57.0672C47.6843 56.6854 48.0366 56.1506 48.1927 55.5468C48.0366 54.9431 47.6843 54.4083 47.1913 54.0265C46.6983 53.6447 46.0923 53.4375 45.4688 53.4375H42.6563V52.0312H46.4063C47.0298 52.0312 47.6358 51.824 48.1288 51.4422C48.6218 51.0604 48.9741 50.5256 49.1302 49.9218C48.9741 49.3181 48.6218 48.7833 48.1288 48.4015C47.6358 48.0197 47.0298 47.8125 46.4063 47.8125H42.6563V46.4062H47.3438C47.9673 46.4062 48.5733 46.199 49.0663 45.8172C49.5593 45.4354 49.9116 44.9006 50.0677 44.2968C49.9116 43.6931 49.5593 43.1583 49.0663 42.7765C48.5733 42.3947 47.9673 42.1875 47.3438 42.1875H42.6563V40.7812H47.3438Z" fill="#A0A0A0"/>
<path d="M22.0313 36.5625H12.6563C12.2833 36.5625 11.9256 36.7107 11.6619 36.9744C11.3982 37.2381 11.25 37.5958 11.25 37.9688V57.6562C11.25 58.0292 11.3982 58.3869 11.6619 58.6506C11.9256 58.9143 12.2833 59.0625 12.6563 59.0625H22.0313C22.4042 59.0625 22.7619 58.9143 23.0256 58.6506C23.2893 58.3869 23.4375 58.0292 23.4375 57.6562V37.9688C23.4375 37.5958 23.2893 37.2381 23.0256 36.9744C22.7619 36.7107 22.4042 36.5625 22.0313 36.5625ZM17.3438 56.8359C17.0656 56.8359 16.7937 56.7535 16.5625 56.5989C16.3312 56.4444 16.151 56.2248 16.0445 55.9678C15.9381 55.7109 15.9103 55.4281 15.9645 55.1553C16.0188 54.8826 16.1527 54.632 16.3494 54.4353C16.5461 54.2386 16.7966 54.1047 17.0694 54.0505C17.3422 53.9962 17.6249 54.024 17.8819 54.1305C18.1389 54.2369 18.3585 54.4172 18.513 54.6484C18.6675 54.8797 18.75 55.1516 18.75 55.4297C18.75 55.8026 18.6018 56.1603 18.3381 56.4241C18.0744 56.6878 17.7167 56.8359 17.3438 56.8359Z" fill="#A0A0A0"/>
</svg>
