<svg width="85" height="85" viewBox="0 0 85 85" fill="none" xmlns="http://www.w3.org/2000/svg">
<path d="M52.4167 49.5833H50.8583C50.2722 49.5844 49.7478 49.2187 49.5465 48.6682C49.3737 48.2148 49.1881 47.7714 48.9883 47.3323C48.7401 46.7982 48.8534 46.1658 49.2717 45.7513L50.3823 44.6392C52.0312 42.9758 52.0281 40.2934 50.3753 38.6339L46.3718 34.6304C44.7102 32.9786 42.0267 32.9786 40.3651 34.6304L39.2544 35.7397C38.839 36.1564 38.2077 36.2695 37.6734 36.023C37.2343 35.8233 36.7908 35.6377 36.3361 35.4563C35.7827 35.2564 35.4145 34.7301 35.4167 34.1417V32.5833C35.4167 30.2361 33.5139 28.3333 31.1667 28.3333H25.5C23.1528 28.3333 21.25 30.2361 21.25 32.5833V34.1417C21.2511 34.7278 20.8854 35.2522 20.3348 35.4535C19.8815 35.6263 19.4381 35.8119 18.9989 36.0117C18.4647 36.2587 17.8332 36.1455 17.4179 35.7283L16.3058 34.6177C14.6444 32.9669 11.962 32.9669 10.3006 34.6177L6.29708 38.6339C4.64525 40.2955 4.64525 42.979 6.29708 44.6406L7.40633 45.7513C7.8246 46.1658 7.93794 46.7982 7.68967 47.3323C7.48992 47.7714 7.30433 48.2148 7.13008 48.6696C6.92732 49.2233 6.39802 49.5894 5.80833 49.5833H4.25C1.90276 49.5833 0 51.4861 0 53.8333V59.5C0 61.8472 1.90276 63.75 4.25 63.75H5.80833C6.39448 63.7489 6.91882 64.1146 7.12017 64.6652C7.293 65.1185 7.47858 65.5619 7.67833 66.0011C7.9266 66.5352 7.81327 67.1675 7.395 67.5821L6.28433 68.6942C4.63356 70.3556 4.63356 73.038 6.28433 74.6994L10.2878 78.7029C11.9494 80.3548 14.6329 80.3548 16.2945 78.7029L17.4052 77.5937C17.8206 77.177 18.4519 77.0638 18.9862 77.3103C19.4253 77.5101 19.8688 77.6957 20.3235 77.877C20.8797 78.0746 21.2511 78.6015 21.25 79.1917V80.75C21.25 83.0972 23.1528 85 25.5 85H31.1667C33.5139 85 35.4167 83.0972 35.4167 80.75V79.1917C35.4156 78.6055 35.7813 78.0812 36.3318 77.8798C36.7852 77.707 37.2286 77.5214 37.6678 77.3217C38.202 77.0746 38.8335 77.1878 39.2488 77.605L40.3608 78.7157C42.0245 80.3638 44.7063 80.3606 46.3661 78.7086L50.3696 74.7051C52.0214 73.0435 52.0214 70.36 50.3696 68.6984L49.2603 67.5878C48.8421 67.1732 48.7287 66.5408 48.977 66.0068C49.1768 65.5676 49.3623 65.1242 49.5437 64.6694C49.7436 64.116 50.2699 63.7479 50.8583 63.75H52.4167C54.7639 63.75 56.6667 61.8472 56.6667 59.5V53.8333C56.6667 51.4861 54.7639 49.5833 52.4167 49.5833ZM53.8333 59.5C53.8333 60.2824 53.199 60.9167 52.4167 60.9167H50.8583C49.0972 60.9232 47.5212 62.0117 46.8917 63.6565C46.7415 64.0532 46.5791 64.4436 46.4043 64.8281C45.676 66.436 46.0139 68.3265 47.2543 69.5824L48.3622 70.6917C48.9157 71.2445 48.9163 72.1416 48.3632 72.6952C48.3629 72.6955 48.3625 72.6959 48.3622 72.6963L44.3587 76.6997C43.8055 77.2528 42.9087 77.2528 42.3555 76.6997L41.2448 75.5905C39.9895 74.349 38.0982 74.0109 36.4905 74.7405C36.1066 74.9147 35.7156 75.0777 35.3218 75.2278C33.6782 75.8572 32.5904 77.4318 32.5833 79.1917V80.75C32.5833 81.5324 31.949 82.1667 31.1667 82.1667H25.5C24.7176 82.1667 24.0833 81.5324 24.0833 80.75V79.1917C24.0768 77.4306 22.9883 75.8545 21.3435 75.225C20.9468 75.0748 20.5564 74.9124 20.1719 74.7377C18.564 74.0097 16.6736 74.3477 15.4176 75.5877L14.3083 76.6955C13.7555 77.2491 12.8584 77.2496 12.3048 76.6966C12.3045 76.6962 12.3041 76.6959 12.3038 76.6955L8.30025 72.6963C7.74722 72.143 7.74722 71.2463 8.30025 70.6931L9.4095 69.5824C10.65 68.3265 10.9878 66.436 10.2595 64.8281C10.0853 64.4442 9.92233 64.0532 9.77217 63.6593C9.14423 62.0141 7.56925 60.9245 5.80833 60.9167H4.25C3.46765 60.9167 2.83333 60.2824 2.83333 59.5V53.8333C2.83333 53.051 3.46765 52.4167 4.25 52.4167H5.80833C7.56943 52.4101 9.14547 51.3216 9.775 49.6768C9.92517 49.2802 10.0876 48.8897 10.2623 48.5053C10.9907 46.8973 10.6526 45.0068 9.41233 43.7509L8.29883 42.6417C7.74527 42.0888 7.74474 41.1917 8.29777 40.6382C8.29813 40.6378 8.29848 40.6374 8.29883 40.6371L12.3023 36.6336C12.8555 36.0806 13.7523 36.0806 14.3055 36.6336L15.4162 37.7428C16.6715 38.9844 18.5628 39.3224 20.1705 38.5928C20.5544 38.4186 20.9454 38.2557 21.3393 38.1055C22.9851 37.4781 24.0754 35.9029 24.0833 34.1417V32.5833C24.0833 31.801 24.7176 31.1667 25.5 31.1667H31.1667C31.949 31.1667 32.5833 31.801 32.5833 32.5833V34.1417C32.5899 35.9028 33.6784 37.4788 35.3232 38.1083C35.7198 38.2585 36.1103 38.4209 36.4948 38.5957C38.1025 39.3253 39.9937 38.9872 41.2491 37.7457L42.3583 36.6378C42.9137 36.0885 43.8076 36.0885 44.3629 36.6378L48.3664 40.6413C48.9194 41.1945 48.9194 42.0913 48.3664 42.6445L47.2572 43.7552C46.0169 45.011 45.6788 46.9016 46.4072 48.5095C46.5814 48.8934 46.7443 49.2844 46.8945 49.6783C47.5239 51.3218 49.0985 52.4096 50.8583 52.4167H52.4167C53.199 52.4167 53.8333 53.051 53.8333 53.8333V59.5Z" fill="#F6F6F6"/>
<path d="M41.055 56.1C41.0408 55.76 41.0168 55.4214 40.9757 55.0842C40.9303 54.7216 40.8765 54.3617 40.8014 54.009C40.7518 53.7781 40.6867 53.55 40.6243 53.3205C40.545 53.0287 40.4558 52.7411 40.3566 52.4577C40.2872 52.2608 40.2149 52.0653 40.1413 51.8712C39.9589 51.4176 39.7502 50.9747 39.5165 50.5452C39.4981 50.5127 39.4868 50.4772 39.4683 50.4447C39.0998 49.7887 38.6731 49.167 38.1933 48.5874C38.1523 48.5364 38.1055 48.4882 38.063 48.4387C37.8675 48.2077 37.6663 47.9839 37.4552 47.77C37.3448 47.6552 37.2286 47.5476 37.1124 47.4371C36.9708 47.3053 36.8291 47.175 36.6874 47.0503C36.5155 46.901 36.3403 46.7565 36.1618 46.6168L35.9295 46.444C33.7374 44.8021 31.0721 43.9152 28.3333 43.9167C28.1917 43.9167 28.05 43.9379 27.9083 43.9436C27.6066 43.9521 27.3034 43.9691 26.9988 44.0002C26.8388 44.0172 26.6773 44.0357 26.5172 44.0583C26.0553 44.1191 25.597 44.2048 25.1444 44.3147C18.323 46.0774 14.2221 53.0365 15.9848 59.8579C17.1465 64.353 20.6584 67.8621 25.1543 69.02C25.177 69.02 25.2011 69.0271 25.2252 69.0328C25.7144 69.1548 26.2101 69.2495 26.7098 69.3161C27.0399 69.3572 27.37 69.3657 27.7015 69.3813C27.9225 69.3926 28.1265 69.4252 28.3574 69.4252C28.7612 69.4252 29.1805 69.3983 29.6083 69.3558C29.6537 69.3558 29.699 69.343 29.75 69.3373C30.0943 69.2991 30.4428 69.2481 30.7983 69.1773C30.94 69.1503 31.0718 69.1149 31.2078 69.0838C31.4571 69.0257 31.705 68.9648 31.96 68.8897C32.1583 68.8302 32.351 68.7607 32.5451 68.6928C32.7392 68.6248 32.9403 68.5511 33.1415 68.4746C33.3427 68.3981 33.5113 68.3103 33.694 68.2253C33.932 68.1162 34.1686 68.0085 34.4023 67.881H34.4108C35.7329 67.1732 36.9541 66.2913 38.0418 65.2587C38.3355 64.9846 38.5911 64.6719 38.8011 64.3294C39.9068 62.5568 40.6332 60.5744 40.9346 58.5069C40.9743 58.2335 41.0097 57.9601 41.0309 57.681C41.0508 57.4246 41.0649 57.1696 41.0706 56.9146C41.0706 56.8338 41.0819 56.7573 41.0819 56.6766C41.0833 56.4768 41.0635 56.2927 41.055 56.1ZM38.2316 57.0279C38.2316 57.1455 38.2217 57.2631 38.2146 57.3792C38.1891 57.7221 38.1452 58.0649 38.0871 58.4092C37.5576 61.3546 35.7289 63.9046 33.1089 65.3508C32.9333 65.4429 32.7604 65.5293 32.5876 65.6087L32.47 65.6653C31.6469 66.039 30.7781 66.3019 29.886 66.4473C29.8237 66.4572 29.7599 66.4686 29.6962 66.4771C29.5191 66.5026 29.3448 66.5238 29.172 66.5394C28.9439 66.5593 28.7144 66.5706 28.4807 66.5748C28.3815 66.5748 28.2838 66.5748 28.1846 66.5748C27.8494 66.5709 27.5147 66.5502 27.1816 66.5125L27.0116 66.4927C26.622 66.4417 26.2356 66.3689 25.8542 66.2745C20.5484 64.9164 17.3481 59.5143 18.706 54.2086C19.6033 50.7027 22.3392 47.9639 25.8443 47.0631V47.0617C26.6581 46.8564 27.494 46.7516 28.3333 46.75C28.7383 46.7523 29.143 46.7797 29.5446 46.8322C29.6523 46.8449 29.7585 46.8647 29.8648 46.8803C30.1708 46.9285 30.4739 46.9894 30.7728 47.0659C30.8706 47.0914 30.9683 47.1141 31.0647 47.141C31.818 47.3585 32.5431 47.6637 33.2251 48.0505C33.3342 48.1142 33.4404 48.1808 33.5481 48.2474C33.7719 48.3891 33.9887 48.5307 34.2026 48.6922C34.3173 48.7758 34.4335 48.858 34.544 48.9472C34.822 49.1693 35.0882 49.4057 35.3416 49.6556C35.4422 49.7576 35.5343 49.8695 35.632 49.9757C35.7949 50.1528 35.9536 50.3342 36.1052 50.5254C36.21 50.6572 36.3106 50.7932 36.4098 50.9306C36.5514 51.1346 36.6931 51.3471 36.8206 51.5624C36.8914 51.68 36.9623 51.7947 37.0345 51.9152C37.2173 52.2514 37.38 52.5982 37.5218 52.9536C37.5785 53.0952 37.6267 53.2369 37.6777 53.3786C37.7698 53.6392 37.8491 53.9027 37.9185 54.1691C37.9539 54.3107 37.9936 54.4368 38.0233 54.5742C38.106 54.9571 38.1661 55.3446 38.2033 55.7345C38.2118 55.8379 38.2118 55.9427 38.2188 56.0462C38.2387 56.372 38.2443 56.6992 38.2316 57.0279Z" fill="#F6F6F6"/>
<path d="M80.75 29.75H76.2946C75.7005 29.756 75.169 29.3818 74.9742 28.8207C74.5349 27.5048 74.0033 26.2213 73.3833 24.9801C73.1202 24.4441 73.2298 23.7996 73.6553 23.3807L76.8145 20.2173C78.4727 18.5578 78.4727 15.8686 76.8145 14.2092L70.7908 8.19542C69.1314 6.53721 66.4422 6.53721 64.7827 8.19542L61.625 11.3518C61.2066 11.7771 60.563 11.8873 60.027 11.6252C58.7856 11.002 57.5018 10.4676 56.185 10.0258C55.6215 9.83291 55.2447 9.30095 55.25 8.70542V4.25C55.25 1.90276 53.3472 0 51 0H42.5C40.1528 0 38.25 1.90276 38.25 4.25V8.70542C38.256 9.29953 37.882 9.83096 37.3207 10.0258C36.0046 10.4674 34.7211 11.0015 33.4801 11.6238C32.9441 11.8878 32.2993 11.7782 31.8807 11.3518L28.7173 8.19258C27.0559 6.53916 24.3706 6.53916 22.7092 8.19258L16.6968 14.2049C15.0377 15.8645 15.0377 18.5548 16.6968 20.2144L21.3421 24.8682C21.904 25.4125 22.8009 25.3984 23.3453 24.8363C23.8763 24.288 23.8776 23.4175 23.3481 22.8678L18.7 18.2155C18.147 17.6623 18.147 16.7655 18.7 16.2123L24.7123 10.2C25.2655 9.64697 26.1623 9.64697 26.7155 10.2L29.8803 13.3592C31.1608 14.6473 33.1229 14.9692 34.748 14.1582C35.8702 13.5963 37.0304 13.1139 38.2203 12.7146C39.9376 12.1332 41.0908 10.5186 41.0833 8.70542V4.25C41.0833 3.46765 41.7176 2.83333 42.5 2.83333H51C51.7824 2.83333 52.4167 3.46765 52.4167 4.25V8.70542C52.4094 10.5182 53.5626 12.1323 55.2798 12.7132C56.4701 13.1127 57.6309 13.5954 58.7534 14.1582C60.3789 14.965 62.3383 14.6427 63.6197 13.3578L66.7845 10.2C67.3377 9.64697 68.2345 9.64697 68.7877 10.2L74.8 16.2138C75.3521 16.7668 75.3521 17.6625 74.8 18.2155L71.6408 21.3803C70.354 22.6615 70.0322 24.6227 70.8418 26.248C71.4037 27.3702 71.8861 28.5304 72.2854 29.7203C72.8664 31.438 74.4812 32.5911 76.2946 32.5833H80.75C81.5323 32.5833 82.1667 33.2176 82.1667 34V42.5C82.1667 43.2824 81.5323 43.9167 80.75 43.9167H76.2946C74.4818 43.9094 72.8677 45.0626 72.2868 46.7798C71.8875 47.9701 71.4046 49.1309 70.8418 50.2534C70.0336 51.8787 70.3561 53.8388 71.6422 55.1197L74.8014 58.2845C75.3544 58.8377 75.3544 59.7345 74.8014 60.2877L68.7862 66.3C68.2332 66.8521 67.3375 66.8521 66.7845 66.3L62.1293 61.6548C61.585 61.0927 60.6881 61.0785 60.1262 61.6229C59.5641 62.1672 59.5499 63.0642 60.0943 63.626C60.1056 63.6377 60.1173 63.6494 60.129 63.6608L64.7827 68.306C66.4422 69.9642 69.1314 69.9642 70.7908 68.306L76.8032 62.2951C78.4623 60.6355 78.4623 57.9452 76.8032 56.2856L73.6482 53.125C73.2232 52.7064 73.1133 52.063 73.3748 51.527C73.998 50.2857 74.5324 49.0018 74.9742 47.685C75.1671 47.1215 75.6991 46.7447 76.2946 46.75H80.75C83.0972 46.75 85 44.8472 85 42.5V34C85 31.6528 83.0972 29.75 80.75 29.75Z" fill="#F6F6F6"/>
<path d="M59.772 25.228C52.5757 18.0467 40.9243 18.0467 33.728 25.228C33.1845 25.7908 33.2001 26.6877 33.7629 27.2312C34.3118 27.7613 35.1822 27.7613 35.7312 27.2312C41.7759 21.1048 51.6425 21.0387 57.7688 27.0835C63.8952 33.1282 63.9613 42.9948 57.9165 49.1211C57.8676 49.1707 57.8184 49.2199 57.7688 49.2688C57.2061 49.8125 57.1905 50.7092 57.7341 51.272C58.2778 51.8348 59.1745 51.8503 59.7373 51.3067C59.749 51.2954 59.7607 51.2837 59.772 51.272C66.9533 44.0757 66.9533 32.4243 59.772 25.228Z" fill="#F6F6F6"/>
</svg>
