<svg width="60" height="60" viewBox="0 0 60 60" fill="none" xmlns="http://www.w3.org/2000/svg">
<path d="M56.7075 23.485L52.0075 22.8875C51.62 21.695 51.1425 20.545 50.585 19.4525L53.4875 15.715C54.6625 14.2025 54.525 12.0675 53.1825 10.7675L49.245 6.83C47.9325 5.475 45.7975 5.34 44.2825 6.5125L40.55 9.415C39.4575 8.8575 38.3075 8.38 37.1125 7.9925L36.515 3.3C36.29 1.4175 34.6925 0 32.8 0H27.2C25.3075 0 23.71 1.4175 23.485 3.2925L22.8875 7.9925C21.6925 8.38 20.5425 8.855 19.45 9.415L15.715 6.5125C14.205 5.34 12.07 5.475 10.7675 6.8175L6.83 10.7525C5.475 12.0675 5.3375 14.2025 6.5125 15.7175L9.415 19.4525C8.855 20.545 8.38 21.695 7.9925 22.8875L3.3 23.485C1.4175 23.71 0 25.3075 0 27.2V32.8C0 34.6925 1.4175 36.29 3.2925 36.515L7.9925 37.1125C8.38 38.305 8.8575 39.455 9.415 40.5475L6.5125 44.285C5.3375 45.7975 5.475 47.9325 6.8175 49.2325L10.755 53.17C12.07 54.5225 14.2025 54.6575 15.7175 53.485L19.4525 50.5825C20.545 51.1425 21.695 51.62 22.8875 52.005L23.485 56.695C23.71 58.5825 25.3075 60 27.2 60H32.8C34.6925 60 36.29 58.5825 36.515 56.7075L37.1125 52.0075C38.305 51.62 39.455 51.1425 40.5475 50.585L44.285 53.4875C45.7975 54.6625 47.9325 54.525 49.2325 53.1825L53.17 49.245C54.525 47.93 54.6625 45.7975 53.4875 44.2825L50.585 40.5475C51.145 39.455 51.6225 38.305 52.0075 37.1125L56.6975 36.515C58.58 36.29 59.9975 34.6925 59.9975 32.8V27.2C60 25.3075 58.5825 23.71 56.7075 23.485ZM30 42.5C23.1075 42.5 17.5 36.8925 17.5 30C17.5 23.1075 23.1075 17.5 30 17.5C36.8925 17.5 42.5 23.1075 42.5 30C42.5 36.8925 36.8925 42.5 30 42.5Z" fill="#4978B0"/>
</svg>
