<svg width="63" height="61" viewBox="0 0 63 61" fill="none" xmlns="http://www.w3.org/2000/svg">
<path d="M61.2404 58.6514C59.5228 57.3353 57.6648 56.2133 55.7 55.3065L48.6766 52.0637C48.3291 53.0539 47.4209 55.2694 45.626 57.4974C44.8675 58.439 44.0399 59.2735 43.1509 60H63L61.2404 58.6514Z" fill="#DFDFDF"/>
<path d="M20.374 57.4974C18.5791 55.2694 17.6709 53.0539 17.3234 52.0637L10.3 55.3065C8.33524 56.2133 6.47717 57.3353 4.75964 58.6514L3 60H22.8491C21.9606 59.2735 21.1325 58.4395 20.374 57.4974Z" fill="#DFDFDF"/>
<path d="M44.4432 48.9839V48.5839C41.3455 51.1881 37.3529 52.7591 33 52.7591C28.6471 52.7591 24.6545 51.1881 21.5573 48.5839V48.9839C21.5573 49.6678 21.1563 50.2945 20.536 50.5806C20.536 50.5806 23.2487 60 33.0005 60C42.7517 60 45.4644 50.5806 45.4644 50.5806C44.8437 50.2945 44.4432 49.6678 44.4432 48.9839Z" fill="#DFDFDF"/>
<path d="M33 49.2417C40.8836 49.2417 47.2969 42.8257 47.2969 34.9388V28.6071H18.7031V34.9388C18.7031 42.8257 25.1169 49.2417 33 49.2417Z" fill="#DFDFDF"/>
<path d="M14.9952 25.0896H51.0048C51.9757 25.0896 52.7626 24.3022 52.7626 23.3313C52.7626 22.36 51.9757 21.5726 51.0048 21.5726H49.528V19.7544C49.528 14.0863 46.6624 9.07657 42.305 6.09607V13.516C42.305 14.4873 41.5181 15.2747 40.5471 15.2747C39.5767 15.2747 38.7893 14.4873 38.7893 13.516V4.97775C38.7893 4.74384 38.836 4.52045 38.9193 4.31628C37.6042 3.81 36.2089 3.46713 34.7578 3.31287V15.6729C34.7578 16.6443 33.9705 17.4317 33 17.4317C32.0291 17.4317 31.2422 16.6443 31.2422 15.6729V3.31287C29.7911 3.46667 28.3963 3.81 27.0816 4.31583C27.1644 4.52045 27.2111 4.74338 27.2111 4.97775V13.516C27.2111 14.4873 26.4242 15.2747 25.4533 15.2747C24.4824 15.2747 23.6955 14.4873 23.6955 13.516V6.09515C19.3376 9.07565 16.4715 14.0863 16.4715 19.7544V21.5726H14.9948C14.0243 21.5726 13.237 22.36 13.237 23.3313C13.237 24.3022 14.0243 25.0896 14.9952 25.0896Z" fill="#DFDFDF"/>
<path d="M42.305 4.97772C42.305 4.00635 41.5181 3.21899 40.5471 3.21899C39.8106 3.21899 39.1803 3.6731 38.9193 4.31671C40.1214 4.77951 41.2567 5.37872 42.305 6.09604V4.97772Z" fill="#DFDFDF"/>
<path d="M25.4538 3.21899C24.4828 3.21899 23.696 4.00635 23.696 4.97772V6.09512C24.7442 5.37781 25.8795 4.77859 27.0816 4.3158C26.8202 3.6731 26.1903 3.21899 25.4538 3.21899Z" fill="#DFDFDF"/>
<path d="M34.7578 3.31284V1.75873C34.7578 0.787354 33.9709 0 33 0C32.0291 0 31.2422 0.787354 31.2422 1.75873V3.31284C31.8199 3.25104 32.4063 3.21899 33 3.21899C33.5937 3.21899 34.1801 3.25104 34.7578 3.31284Z" fill="#DFDFDF"/>
<path d="M58.2404 59.6514C56.5228 58.3353 54.6648 57.2133 52.7 56.3065L45.6766 53.0637C45.3291 54.0539 44.4209 56.2694 42.626 58.4974C41.8675 59.439 41.0399 60.2735 40.1509 61H60L58.2404 59.6514Z" fill="#4978B0"/>
<path d="M17.374 58.4974C15.5791 56.2694 14.6709 54.0539 14.3234 53.0637L7.29996 56.3065C5.33524 57.2133 3.47717 58.3353 1.75964 59.6514L0 61H19.8491C18.9606 60.2735 18.1325 59.4395 17.374 58.4974Z" fill="#4978B0"/>
<path d="M41.4432 49.9839V49.5839C38.3455 52.1881 34.3529 53.7591 30 53.7591C25.6471 53.7591 21.6545 52.1881 18.5573 49.5839V49.9839C18.5573 50.6678 18.1563 51.2945 17.536 51.5806C17.536 51.5806 20.2487 61 30.0005 61C39.7517 61 42.4644 51.5806 42.4644 51.5806C41.8437 51.2945 41.4432 50.6678 41.4432 49.9839Z" fill="#4978B0"/>
<path d="M30 50.2417C37.8836 50.2417 44.2969 43.8257 44.2969 35.9388V29.6071H15.7031V35.9388C15.7031 43.8257 22.1169 50.2417 30 50.2417Z" fill="#4978B0"/>
<path d="M11.9952 26.0896H48.0048C48.9757 26.0896 49.7626 25.3022 49.7626 24.3313C49.7626 23.36 48.9757 22.5726 48.0048 22.5726H46.528V20.7544C46.528 15.0863 43.6624 10.0766 39.305 7.09607V14.516C39.305 15.4873 38.5181 16.2747 37.5471 16.2747C36.5767 16.2747 35.7893 15.4873 35.7893 14.516V5.97775C35.7893 5.74384 35.836 5.52045 35.9193 5.31628C34.6042 4.81 33.2089 4.46713 31.7578 4.31287V16.6729C31.7578 17.6443 30.9705 18.4317 30 18.4317C29.0291 18.4317 28.2422 17.6443 28.2422 16.6729V4.31287C26.7911 4.46667 25.3963 4.81 24.0816 5.31583C24.1644 5.52045 24.2111 5.74338 24.2111 5.97775V14.516C24.2111 15.4873 23.4242 16.2747 22.4533 16.2747C21.4824 16.2747 20.6955 15.4873 20.6955 14.516V7.09515C16.3376 10.0757 13.4715 15.0863 13.4715 20.7544V22.5726H11.9948C11.0243 22.5726 10.237 23.36 10.237 24.3313C10.237 25.3022 11.0243 26.0896 11.9952 26.0896Z" fill="#4978B0"/>
<path d="M39.305 5.97772C39.305 5.00635 38.5181 4.21899 37.5471 4.21899C36.8106 4.21899 36.1803 4.6731 35.9193 5.31671C37.1214 5.77951 38.2567 6.37872 39.305 7.09604V5.97772Z" fill="#4978B0"/>
<path d="M22.4538 4.21899C21.4828 4.21899 20.696 5.00635 20.696 5.97772V7.09512C21.7442 6.37781 22.8795 5.77859 24.0816 5.3158C23.8202 4.6731 23.1903 4.21899 22.4538 4.21899Z" fill="#4978B0"/>
<path d="M31.7578 4.31284V2.75873C31.7578 1.78735 30.9709 1 30 1C29.0291 1 28.2422 1.78735 28.2422 2.75873V4.31284C28.8199 4.25104 29.4063 4.21899 30 4.21899C30.5937 4.21899 31.1801 4.25104 31.7578 4.31284Z" fill="#4978B0"/>
</svg>
