<svg width="60" height="60" viewBox="0 0 60 60" fill="none" xmlns="http://www.w3.org/2000/svg">
<path d="M30 0C13.4573 0 0 13.4573 0 30C0 46.5427 13.4573 60 30 60C46.5427 60 60 46.5427 60 30C60 13.4573 46.5427 0 30 0ZM44.2676 45.5173C43.7801 46.0048 43.1401 46.2502 42.5002 46.2502C41.8602 46.2502 41.2198 46.0048 40.7327 45.5173L28.2326 33.0176C27.7625 32.5502 27.5002 31.9148 27.5002 31.2502V15C27.5002 13.6176 28.6198 12.5002 30 12.5002C31.3802 12.5002 32.4998 13.6176 32.4998 15V30.2151L44.2676 41.9824C45.2449 42.9602 45.2449 44.5399 44.2676 45.5173Z" fill="#4978B0"/>
</svg>
