<svg width="12" height="12" viewBox="0 0 12 12" fill="none" xmlns="http://www.w3.org/2000/svg">
<path d="M8.62478 12C8.23742 12 7.85335 11.9315 7.47778 11.7951C5.8232 11.194 4.28741 10.2151 3.03636 8.96405C1.78532 7.71304 0.806376 6.17722 0.205346 4.52264C0.0122056 3.99091 -0.0447921 3.44203 0.0359937 2.89118C0.11167 2.3752 0.311537 1.87429 0.614009 1.44259C0.917817 1.00899 1.32285 0.648348 1.7853 0.399663C2.27845 0.134479 2.81672 0 3.38519 0C3.562 0 3.7148 0.123534 3.75186 0.296402L4.34044 3.04314C4.36709 3.16752 4.32887 3.29694 4.23894 3.38688L3.23321 4.39259C4.18197 6.27891 5.72147 7.81841 7.60778 8.76716L8.61349 7.76143C8.70341 7.67151 8.83285 7.63333 8.95723 7.65993L11.704 8.24851C11.8769 8.28557 12.0004 8.43837 12.0004 8.61518C12.0004 9.18365 11.8659 9.72194 11.6007 10.2151C11.352 10.6775 10.9914 11.0826 10.5578 11.3864C10.1261 11.6889 9.62517 11.8887 9.10917 11.9644C8.94748 11.9881 8.78582 12 8.62478 12ZM3.08558 0.766375C2.33573 0.849153 1.67018 1.24218 1.22821 1.87298C0.731215 2.58228 0.615322 3.45471 0.910247 4.2666C2.06576 7.44755 4.55287 9.93466 7.73382 11.0902C8.54569 11.3851 9.41813 11.2692 10.1274 10.7722C10.7582 10.3302 11.1513 9.66469 11.234 8.91484L8.99958 8.43603L7.94925 9.48636C7.83748 9.59813 7.66766 9.62782 7.52465 9.56061C5.29372 8.51253 3.48789 6.70669 2.43981 4.47577C2.37262 4.33274 2.40229 4.16292 2.51406 4.05117L3.56439 3.00084L3.08558 0.766375Z" fill="white"/>
</svg>
