<svg width="186" height="210" viewBox="0 0 186 210" fill="none" xmlns="http://www.w3.org/2000/svg">
<path d="M179.133 25.0195C138.217 25.0195 96.3887 1.86252 95.9679 1.63406L93 0L90.0321 1.63406C89.6113 1.86252 47.7827 25.0195 6.86719 25.0195H0.714844V31.1719C0.714844 181.748 87.6228 208.48 91.3237 209.525L93 210L94.6763 209.525C98.3772 208.48 185.285 181.748 185.285 31.1719V25.0195H179.133Z" fill="#F9F5F3"/>
<path d="M185.285 31.1719V25.0195H179.133C138.217 25.0195 96.3887 1.86252 95.9679 1.63406L93 0V210L94.6763 209.525C98.3772 208.48 185.285 181.748 185.285 31.1719Z" fill="white"/>
<path d="M92.9999 13.9749C82.894 19.1178 48.9421 35.4556 13.0674 37.1741C15.1104 163.165 81.164 192.895 92.9999 197.131C104.836 192.895 170.889 163.165 172.932 37.1741C137.058 35.4556 103.106 19.1178 92.9999 13.9749Z" fill="#7CB1D8"/>
<path d="M172.932 37.1741C137.058 35.4556 103.106 19.1178 93 13.9749V197.131C104.836 192.895 170.889 163.165 172.932 37.1741Z" fill="#4978B0"/>
<path d="M93 37.3242C62.4848 37.3242 37.6289 62.1801 37.6289 92.6953C37.6289 123.211 62.4848 148.066 93 148.066C123.515 148.066 148.371 123.211 148.371 92.6953C148.371 62.1801 123.515 37.3242 93 37.3242Z" fill="#F9F5F3"/>
<path d="M148.371 92.6953C148.371 123.211 123.515 148.066 93 148.066V37.3242C123.515 37.3242 148.371 62.1801 148.371 92.6953Z" fill="white"/>
<path d="M113.26 76.0409L93.0001 96.3002L86.8477 102.452L72.7404 88.3456L64.041 97.045L86.8477 119.852L93.0001 113.7L121.959 84.7403L113.26 76.0409Z" fill="#7CB1D8"/>
<path d="M121.959 84.7403L113.26 76.0409L93 96.3002V113.7L121.959 84.7403Z" fill="#4978B0"/>
</svg>
