<svg width="22" height="16" viewBox="0 0 22 16" fill="none" xmlns="http://www.w3.org/2000/svg">
<path d="M18.5074 7.477H19.7145L18.861 6.62344L14.0604 1.82289C13.8562 1.61863 13.8562 1.28757 14.0604 1.08331C14.2646 0.879132 14.5958 0.879132 14.8 1.08331L21.3468 7.63015C21.5511 7.83441 21.5511 8.16547 21.3468 8.36973L21.7004 8.72328L21.3468 8.36973L14.8003 14.9164C14.6979 15.0187 14.5648 15.0697 14.4304 15.0697C14.2959 15.0697 14.1628 15.0187 14.0606 14.9166C13.8563 14.7123 13.8563 14.3812 14.0606 14.177L14.0606 14.177L18.861 9.37643L19.7145 8.52288H18.5074H1.02294C0.734201 8.52288 0.5 8.28865 0.5 7.99994C0.5 7.71117 0.734176 7.477 1.02294 7.477H18.5074Z" fill="white" stroke="white"/>
</svg>
